<?xml version="1.0" standalone="yes"?>
<svg width="900" height="520">
<path style="fill:#ffffff; stroke:none;" d="M0 0L0 20L20 20L20 40L0 40L0 60L20 60L20 80L0 80L0 100L20 100L20 120L0 120L0 140L20 140L20 160L0 160L0 180L20 180L20 200L0 200L0 220L20 220L20 240L0 240L0 260L20 260L20 280L0 280L0 300L20 300L20 320L0 320L0 340L20 340L20 360L0 360L0 380L20 380L20 400L0 400L0 420L20 420L20 440L0 440L0 460L20 460L20 480L0 480L0 500L20 500L20 520L40 520L40 500L60 500L60 520L80 520L80 500L100 500L100 520L120 520L120 500L140 500L140 520L160 520L160 500L180 500L180 520L200 520L200 500L220 500L220 520L240 520L240 500L260 500L260 520L280 520L280 500L300 500L300 520L320 520L318.972 500.702L308 496.28L280 486L280 500L260 500L260 480L240 480L240 460L251 460C245.421 446.6 240.306 434.838 240 420L220 420L220 400L240 400L240 380C254.005 380 256.065 371.153 264.2 361C270.952 352.573 278.576 345.329 287 338.6C293.482 333.423 304.39 328.954 309.382 322.482C314.686 315.606 308.218 300.098 300 300L300 280L280 280L280 260L300 260L300 240L280 240L280 220L300 220L300 200L280 200L280 180L300 180L300 160L311 160L315 140L300 140L300 120L320 120L320 100C331.852 99.9987 336.431 91.2267 339 80L320 80L320 60L340 60L340 40L360 40L360 20L380 20L380 0L360 0L360 20L340 20L340 0L320 0L320 20L300 20L300 0L280 0L280 20L260 20L260 0L240 0L240 20L220 20L220 0L200 0L200 20L180 20L180 0L160 0L160 20L140 20L140 0L120 0L120 20L100 20L100 0L80 0L80 20L60 20L60 0L40 0L40 20L20 20L20 0L0 0z"/>
<path style="fill:#eeeeee; stroke:none;" d="M20 0L20 20L40 20L40 0L20 0M60 0L60 20L80 20L80 0L60 0M100 0L100 20L120 20L120 0L100 0M140 0L140 20L160 20L160 0L140 0M180 0L180 20L200 20L200 0L180 0M220 0L220 20L240 20L240 0L220 0M260 0L260 20L280 20L280 0L260 0M300 0L300 20L320 20L320 0L300 0M340 0L340 20L360 20L360 0L340 0M380 0L380 20L360 20L360 40L340 40L340 60L320 60L320 80L340 81C351.276 54.833 375.913 27.4072 401 14L400 0L380 0z"/>
<path style="fill:#fffeff; stroke:none;" d="M400 0L400 13L438 1C427.964 -3.2113 410.911 0 400 0z"/>
<path style="fill:#abbcc3; stroke:none;" d="M438 0L438 1L441 1L438 0z"/>
<path style="fill:#407795; stroke:none;" d="M441 0L441 1L446 1L441 0z"/>
<path style="fill:#065178; stroke:none;" d="M450 511L450 446C437.327 443.705 430.638 429.596 425.77 419C417.631 401.285 412.236 382.039 408.211 363C406.159 353.294 406.09 341.17 402.121 332.09C398.526 323.864 386.246 316.643 380.09 310C369.795 298.89 361.451 284.853 355.424 271C326.216 203.863 322.532 95.5938 406 67.0787C420.111 62.2579 435.201 61 450 61L450 19L452 1C439.455 -4.117 417.228 5.13904 406 10.7531C364.188 31.6593 339.051 74.9401 322.811 117C305.762 161.155 300.982 211.018 303.039 258C303.634 271.581 305.281 285.569 307.438 299C308.385 304.897 311.715 313.049 310.593 318.96C309.097 326.839 290.02 335.168 284 340.299C266.802 354.957 250.55 373.658 244.489 396C232.289 440.973 253.744 475.634 296 492.399C343.345 511.182 399.855 511 450 511z"/>
<path style="fill:#3b7696; stroke:none;" d="M452 0L452 1L457 1L452 0z"/>
<path style="fill:#a3bbc5; stroke:none;" d="M457 0L457 1L462 1L457 0z"/>
<path style="fill:#ffffff; stroke:none;" d="M462 0L462 1L500 13L500 0L462 0z"/>
<path style="fill:#eeeeee; stroke:none;" d="M500 0L499 14C516.345 23.2334 531.224 38.5543 543.113 54C548.211 60.6234 553.495 74.5941 560.39 78.9722C564.969 81.8805 574.714 80 580 80L580 100L570 100L584 140L600 140L600 160L590 160L597.961 227L593 300L600 300L600 320L620 320L620 340L640 340L640 360L660 360L660 380L649 380L658.195 407L660.742 418.972L680 420L680 440L660 440L660 460C646.46 460 643.125 468.988 633 476.765C629.534 479.426 622.493 482.348 620.603 486.39C618.889 490.056 620 496.021 620 500L600 500L600 520L620 520L620 500L640 500L640 520L660 520L660 500L680 500L680 520L700 520L700 500L720 500L720 520L740 520L740 500L760 500L760 520L780 520L780 500L800 500L800 520L820 520L820 500L840 500L840 520L860 520L860 500L880 500L880 520L900 520L900 500L880 500L880 480L900 480L900 460L880 460L880 440L900 440L900 420L880 420L880 400L900 400L900 380L880 380L880 360L900 360L900 340L880 340L880 320L900 320L900 300L880 300L880 280L900 280L900 260L880 260L880 240L900 240L900 220L880 220L880 200L900 200L900 180L880 180L880 160L900 160L900 140L880 140L880 120L900 120L900 100L880 100L880 80L900 80L900 60L880 60L880 40L900 40L900 20L880 20L880 0L860 0L860 20L840 20L840 0L820 0L820 20L800 20L800 0L780 0L780 20L760 20L760 0L740 0L740 20L720 20L720 0L700 0L700 20L680 20L680 0L660 0L660 20L640 20L640 0L620 0L620 20L600 20L600 0L580 0L580 20L560 20L560 0L540 0L540 20L520 20L520 0L500 0z"/>
<path style="fill:#ffffff; stroke:none;" d="M520 0L520 20L540 20L540 0L520 0M560 0L560 20L580 20L580 0L560 0M600 0L600 20L620 20L620 0L600 0M640 0L640 20L660 20L660 0L640 0M680 0L680 20L700 20L700 0L680 0M720 0L720 20L740 20L740 0L720 0M760 0L760 20L780 20L780 0L760 0M800 0L800 20L820 20L820 0L800 0M840 0L840 20L860 20L860 0L840 0M880 0L880 20L900 20L900 0L880 0z"/>
<path style="fill:#87adb8; stroke:none;" d="M432.667 1.33331L433.333 1.66669L432.667 1.33331z"/>
<path style="fill:#102d35; stroke:none;" d="M450 1L450 61C464.916 61 479.794 62.3494 494 67.1697C577.734 95.5821 573.933 204.52 544.576 272C538.339 286.334 529.57 300.537 518.911 312C513.34 317.991 501.22 324.862 498.032 332.209C494.186 341.07 493.814 353.48 491.789 363C487.8 381.763 482.73 400.353 475.15 418C470.252 429.405 463.213 443.968 450 447L450 512C501.648 511.966 558.234 510.969 607 491.938C647.176 476.26 667.398 440.163 656.244 398C650.182 375.086 634.725 356.184 617 341.134C611.077 336.105 590.577 326.778 589.607 318.985C588.637 311.187 592.661 300.846 593.718 293C595.87 277.019 597 261.12 597 245C597 180.138 585.631 115.76 548.67 61C525.84 27.177 491.986 1 450 1z"/>
<path style="fill:#4d7da1; stroke:none;" d="M464 1L464 2L467 2L464 1z"/>
<path style="fill:#8aa6bc; stroke:none;" d="M427.667 2.33331L428.333 2.66669L427.667 2.33331z"/>
<path style="fill:#81abb7; stroke:none;" d="M470.667 2.33331L471.333 2.66669L470.667 2.33331z"/>
<path style="fill:#58849d; stroke:none;" d="M424.667 3.33331L425.333 3.66669L424.667 3.33331z"/>
<path style="fill:#91b1c0; stroke:none;" d="M474.667 3.33331L475.333 3.66669L474.667 3.33331z"/>
<path style="fill:#7aa5b8; stroke:none;" d="M394 17L395 18L394 17z"/>
<path style="fill:#638f9c; stroke:none;" d="M505 17L506 18L505 17z"/>
<path style="fill:#7192a5; stroke:none;" d="M508 19L509 20L508 19z"/>
<path style="fill:#eeeeee; stroke:none;" d="M0 20L0 40L20 40L20 20L0 20M40 20L40 40L20 40L20 60L40 60L40 80L20 80L20 100L40 100L40 120L20 120L20 140L40 140L40 160L20 160L20 180L40 180L40 200L20 200L20 220L40 220L40 240L20 240L20 260L40 260L40 280L20 280L20 300L40 300L40 320L20 320L20 340L40 340L40 360L20 360L20 380L40 380L40 400L20 400L20 420L40 420L40 440L20 440L20 460L40 460L40 480L20 480L20 500L40 500L40 480L60 480L60 500L80 500L80 480L100 480L100 500L120 500L120 480L140 480L140 500L160 500L160 480L180 480L180 500L200 500L200 480L220 480L220 500L240 500L240 480L220 480L220 460L240 460L240 440L220 440L220 420L200 420L200 400L220 400L220 380L240 380L240 360L260 360L260 340L280 340L280 320L300 320L300 300L280 300L280 280L260 280L260 260L280 260L280 240L260 240L260 220L280 220L280 200L260 200L260 180L280 180L280 160L300 160L300 140L280 140L280 120L300 120L300 100L320 100L320 80L300 80L300 60L320 60L320 40L340 40L340 20L320 20L320 40L300 40L300 20L280 20L280 40L260 40L260 20L240 20L240 40L220 40L220 20L200 20L200 40L180 40L180 20L160 20L160 40L140 40L140 20L120 20L120 40L100 40L100 20L80 20L80 40L60 40L60 20L40 20z"/>
<path style="fill:#ffffff; stroke:none;" d="M540 20L540 40L560 40L560 60L580 60L580 80L600 80L600 100L580 100L580 120L600 120L600 140L620 140L620 160L600 160L600 180L620 180L620 200L600 200L600 220L620 220L620 240L600 240L600 260L620 260L620 280L600 280L600 300L620 300L620 320L640 320L640 340L660 340L660 360L680 360L680 380L660 380L660 400L680 400L680 420L700 420L700 440L680 440L680 460L660 460L660 480L640 480L640 500L660 500L660 480L680 480L680 500L700 500L700 480L720 480L720 500L740 500L740 480L760 480L760 500L780 500L780 480L800 480L800 500L820 500L820 480L840 480L840 500L860 500L860 480L880 480L880 460L860 460L860 440L880 440L880 420L860 420L860 400L880 400L880 380L860 380L860 360L880 360L880 340L860 340L860 320L880 320L880 300L860 300L860 280L880 280L880 260L860 260L860 240L880 240L880 220L860 220L860 200L880 200L880 180L860 180L860 160L880 160L880 140L860 140L860 120L880 120L880 100L860 100L860 80L880 80L880 60L860 60L860 40L880 40L880 20L860 20L860 40L840 40L840 20L820 20L820 40L800 40L800 20L780 20L780 40L760 40L760 20L740 20L740 40L720 40L720 20L700 20L700 40L680 40L680 20L660 20L660 40L640 40L640 20L620 20L620 40L600 40L600 20L580 20L580 40L560 40L560 20L540 20z"/>
<path style="fill:#7d9fb8; stroke:none;" d="M386 23L387 24L386 23z"/>
<path style="fill:#7096ad; stroke:none;" d="M517 26L518 27L517 26z"/>
<path style="fill:#ffffff; stroke:none;" d="M40 40L40 60L60 60L60 80L40 80L40 100L60 100L60 120L40 120L40 140L60 140L60 160L40 160L40 180L60 180L60 200L40 200L40 220L60 220L60 240L40 240L40 260L60 260L60 280L40 280L40 300L60 300L60 320L40 320L40 340L60 340L60 360L40 360L40 380L60 380L60 400L40 400L40 420L60 420L60 440L40 440L40 460L60 460L60 480L80 480L80 460L100 460L100 480L120 480L120 460L140 460L140 480L160 480L160 460L180 460L180 480L200 480L200 460L220 460L220 440L200 440L200 420L180 420L180 400L200 400L200 380L220 380L220 360L240 360L240 340L260 340L260 320L280 320L280 300L260 300L260 280L240 280L240 260L260 260L260 240L240 240L240 220L260 220L260 200L240 200L240 180L260 180L260 160L280 160L280 140L260 140L260 120L280 120L280 100L300 100L300 80L280 80L280 60L300 60L300 40L280 40L280 60L260 60L260 40L240 40L240 60L220 60L220 40L200 40L200 60L180 60L180 40L160 40L160 60L140 60L140 40L120 40L120 60L100 60L100 40L80 40L80 60L60 60L60 40L40 40z"/>
<path style="fill:#eeeeee; stroke:none;" d="M580 40L580 60L600 60L600 80L620 80L620 100L600 100L600 120L620 120L620 140L640 140L640 160L620 160L620 180L640 180L640 200L620 200L620 220L640 220L640 240L620 240L620 260L640 260L640 280L620 280L620 300L640 300L640 320L660 320L660 340L680 340L680 360L700 360L700 380L680 380L680 400L700 400L700 420L720 420L720 440L700 440L700 460L680 460L680 480L700 480L700 460L720 460L720 480L740 480L740 460L760 460L760 480L780 480L780 460L800 460L800 480L820 480L820 460L840 460L840 480L860 480L860 460L840 460L840 440L860 440L860 420L840 420L840 400L860 400L860 380L840 380L840 360L860 360L860 340L840 340L840 320L860 320L860 300L840 300L840 280L860 280L860 260L840 260L840 240L860 240L860 220L840 220L840 200L860 200L860 180L840 180L840 160L860 160L860 140L840 140L840 120L860 120L860 100L840 100L840 80L860 80L860 60L840 60L840 40L820 40L820 60L800 60L800 40L780 40L780 60L760 60L760 40L740 40L740 60L720 60L720 40L700 40L700 60L680 60L680 40L660 40L660 60L640 60L640 40L620 40L620 60L600 60L600 40L580 40z"/>
<path style="fill:#ffffff; stroke:none;" d="M880 40L880 60L900 60L900 40L880 40z"/>
<path style="fill:#778e96; stroke:none;" d="M536 45L537 46L536 45z"/>
<path style="fill:#77a2ab; stroke:none;" d="M547 59L548 60L547 59z"/>
<path style="fill:#eeeeee; stroke:none;" d="M0 60L0 80L20 80L20 60L0 60M80 60L80 80L60 80L60 100L80 100L80 120L60 120L60 140L80 140L80 160L60 160L60 180L80 180L80 200L60 200L60 220L80 220L80 240L60 240L60 260L80 260L80 280L60 280L60 300L80 300L80 320L60 320L60 340L80 340L80 360L60 360L60 380L80 380L80 400L60 400L60 420L80 420L80 440L60 440L60 460L80 460L80 440L100 440L100 460L120 460L120 440L140 440L140 460L160 460L160 440L180 440L180 460L200 460L200 440L180 440L180 420L160 420L160 400L180 400L180 380L200 380L200 360L220 360L220 340L240 340L240 320L260 320L260 300L240 300L240 280L220 280L220 260L240 260L240 240L220 240L220 220L240 220L240 200L220 200L220 180L240 180L240 160L260 160L260 140L240 140L240 120L260 120L260 100L280 100L280 80L260 80L260 60L240 60L240 80L220 80L220 60L200 60L200 80L180 80L180 60L160 60L160 80L140 80L140 60L120 60L120 80L100 80L100 60L80 60z"/>
<path style="fill:#ffffff; stroke:none;" d="M620 60L620 80L640 80L640 100L620 100L620 120L640 120L640 140L660 140L660 160L640 160L640 180L660 180L660 200L640 200L640 220L660 220L660 240L640 240L640 260L660 260L660 280L640 280L640 300L660 300L660 320L680 320L680 340L700 340L700 360L720 360L720 380L700 380L700 400L720 400L720 420L740 420L740 440L720 440L720 460L740 460L740 440L760 440L760 460L780 460L780 440L800 440L800 460L820 460L820 440L840 440L840 420L820 420L820 400L840 400L840 380L820 380L820 360L840 360L840 340L820 340L820 320L840 320L840 300L820 300L820 280L840 280L840 260L820 260L820 240L840 240L840 220L820 220L820 200L840 200L840 180L820 180L820 160L840 160L840 140L820 140L820 120L840 120L840 100L820 100L820 80L840 80L840 60L820 60L820 80L800 80L800 60L780 60L780 80L760 80L760 60L740 60L740 80L720 80L720 60L700 60L700 80L680 80L680 60L660 60L660 80L640 80L640 60L620 60z"/>
<path style="fill:#cddcdf; stroke:none;" d="M435 61L435 62L444 62L435 61z"/>
<path style="fill:#ffffff; stroke:none;" d="M450 445C450 439.199 451.247 431.785 449.683 426.184C448.501 421.953 443.493 418.966 441.402 414.999C437.264 407.148 434.937 397.565 432.76 389C426.263 363.437 425 334.271 425 308C425 295.576 422.217 269.445 435.015 262.093C439.458 259.542 445.116 260.987 450 261L450 216C444.936 219.003 433.866 223.048 433.207 212.996C432.412 200.888 447.964 190.678 449.786 179C451.726 166.571 450 152.582 450 140L450 62L454 62C442.742 57.276 421.51 63.37 410 66.1157C351.172 80.1495 336.693 137.25 337.985 190C338.411 207.352 338.699 230.943 346.853 246.776C348.754 250.466 353.777 252.225 357 254.584C363.506 259.346 369.457 265.073 374.907 271C390.598 288.064 398.121 308.807 402.551 331C408.556 361.086 412.827 391.828 425.77 420C430.581 430.471 436.897 444.683 450 445z"/>
<path style="fill:#bfc2cb; stroke:none;" d="M454 61L454 62L462 62L454 61z"/>
<path style="fill:#50696d; stroke:none;" d="M462 61L462 62L466 62L462 61z"/>
<path style="fill:#aec3d6; stroke:none;" d="M425 62L425 63L430 63L425 62z"/>
<path style="fill:#d3edea; stroke:none;" d="M450 62C450 99.964 446.076 140.275 450.108 178C451.385 189.949 468.996 199.713 467.137 211.999C465.367 223.706 455.11 217.777 449 215L450 260C454.402 260 459.951 259.128 463.996 261.179C474.156 266.331 474.951 284.067 474.999 294C475.145 324.313 474.026 355.241 467.996 385C465.637 396.641 462.477 421.06 448 423L448 424C451.791 429.004 450.982 440.639 448 446C463.406 447.583 471.006 428.655 475.999 417C490.446 383.281 492.784 347.029 502.025 312C506.677 294.368 518.998 276.602 531.961 264.093C538.091 258.179 551.111 252.706 554.286 244.957C560.064 230.859 561.062 213.984 562.089 199C564.663 161.461 561.681 115.579 531.985 88.1705C509.134 67.0792 479.89 62 450 62z"/>
<path style="fill:#516468; stroke:none;" d="M473.667 62.3333L474.333 62.6667L473.667 62.3333z"/>
<path style="fill:#809bae; stroke:none;" d="M549 62L550 63L549 62z"/>
<path style="fill:#6592a7; stroke:none;" d="M419 63L419 64L422 64L419 63z"/>
<path style="fill:#7d8f93; stroke:none;" d="M478.667 63.3333L479.333 63.6667L478.667 63.3333z"/>
<path style="fill:#bbc4cb; stroke:none;" d="M415.667 64.3333L416.333 64.6667L415.667 64.3333z"/>
<path style="fill:#4b6363; stroke:none;" d="M484.667 64.3333L485.333 64.6667L484.667 64.3333z"/>
<path style="fill:#aac8d3; stroke:none;" d="M411.667 65.3333L412.333 65.6667L411.667 65.3333z"/>
<path style="fill:#51646b; stroke:none;" d="M488.667 65.3333L489.333 65.6667L488.667 65.3333z"/>
<path style="fill:#6d8d9a; stroke:none;" d="M551 65L552 66L551 65z"/>
<path style="fill:#b8c2cb; stroke:none;" d="M407.667 66.3333L408.333 66.6667L407.667 66.3333z"/>
<path style="fill:#768e92; stroke:none;" d="M510 73L511 74L510 73z"/>
<path style="fill:#678f9b; stroke:none;" d="M556 73L557 74L556 73z"/>
<path style="fill:#839297; stroke:none;" d="M512 74L513 75L512 74z"/>
<path style="fill:#7caab7; stroke:none;" d="M342 75L343 76L342 75z"/>
<path style="fill:#7c9cab; stroke:none;" d="M384 76L385 77L384 76z"/>
<path style="fill:#809399; stroke:none;" d="M517 77L518 78L517 77z"/>
<path style="fill:#ffffff; stroke:none;" d="M80 80L80 100L100 100L100 120L80 120L80 140L100 140L100 160L80 160L80 180L100 180L100 200L80 200L80 220L100 220L100 240L80 240L80 260L100 260L100 280L80 280L80 300L100 300L100 320L80 320L80 340L100 340L100 360L80 360L80 380L100 380L100 400L80 400L80 420L100 420L100 440L120 440L120 420L140 420L140 440L160 440L160 420L140 420L140 400L160 400L160 380L180 380L180 360L200 360L200 340L220 340L220 320L240 320L240 300L220 300L220 280L200 280L200 260L220 260L220 240L200 240L200 220L220 220L220 200L200 200L200 180L220 180L220 160L240 160L240 140L220 140L220 120L240 120L240 100L260 100L260 80L240 80L240 100L220 100L220 80L200 80L200 100L180 100L180 80L160 80L160 100L140 100L140 80L120 80L120 100L100 100L100 80L80 80z"/>
<path style="fill:#6f9db4; stroke:none;" d="M560 80L561 81L560 80z"/>
<path style="fill:#ffffff; stroke:none;" d="M561 80C564.16 90.9694 568.006 99.9987 580 100L580 80L561 80z"/>
<path style="fill:#eeeeee; stroke:none;" d="M660 80L660 100L640 100L640 120L660 120L660 140L680 140L680 160L660 160L660 180L680 180L680 200L660 200L660 220L680 220L680 240L660 240L660 260L680 260L680 280L660 280L660 300L680 300L680 320L700 320L700 340L720 340L720 360L740 360L740 380L720 380L720 400L740 400L740 420L760 420L760 440L780 440L780 420L800 420L800 440L820 440L820 420L800 420L800 400L820 400L820 380L800 380L800 360L820 360L820 340L800 340L800 320L820 320L820 300L800 300L800 280L820 280L820 260L800 260L800 240L820 240L820 220L800 220L800 200L820 200L820 180L800 180L800 160L820 160L820 140L800 140L800 120L820 120L820 100L800 100L800 80L780 80L780 100L760 100L760 80L740 80L740 100L720 100L720 80L700 80L700 100L680 100L680 80L660 80z"/>
<path style="fill:#ffffff; stroke:none;" d="M880 80L880 100L900 100L900 80L880 80z"/>
<path style="fill:#798e93; stroke:none;" d="M523 81L524 82L523 81z"/>
<path style="fill:#7ba0bb; stroke:none;" d="M337 84L338 85L337 84z"/>
<path style="fill:#7b9095; stroke:none;" d="M528 85L529 86L528 85z"/>
<path style="fill:#6a9ab1; stroke:none;" d="M568 96L569 97L568 96z"/>
<path style="fill:#77a2b2; stroke:none;" d="M360 97L361 98L360 97z"/>
<path style="fill:#7c9496; stroke:none;" d="M540 98L541 99L540 98z"/>
<path style="fill:#89acc2; stroke:none;" d="M569 98L570 99L569 98z"/>
<path style="fill:#eeeeee; stroke:none;" d="M0 100L0 120L20 120L20 100L0 100M120 100L120 120L100 120L100 140L120 140L120 160L100 160L100 180L120 180L120 200L100 200L100 220L120 220L120 240L100 240L100 260L120 260L120 280L100 280L100 300L120 300L120 320L100 320L100 340L120 340L120 360L100 360L100 380L120 380L120 400L100 400L100 420L120 420L120 400L140 400L140 380L160 380L160 360L180 360L180 340L200 340L200 320L220 320L220 300L200 300L200 280L180 280L180 260L200 260L200 240L180 240L180 220L200 220L200 200L180 200L180 180L200 180L200 160L220 160L220 140L200 140L200 120L220 120L220 100L200 100L200 120L180 120L180 100L160 100L160 120L140 120L140 100L120 100M320 100L320 120L300 120L300 140L316 140L330 100L320 100z"/>
<path style="fill:#ffffff; stroke:none;" d="M660 100L660 120L680 120L680 140L700 140L700 160L680 160L680 180L700 180L700 200L680 200L680 220L700 220L700 240L680 240L680 260L700 260L700 280L680 280L680 300L700 300L700 320L720 320L720 340L740 340L740 360L760 360L760 380L740 380L740 400L760 400L760 420L780 420L780 400L800 400L800 380L780 380L780 360L800 360L800 340L780 340L780 320L800 320L800 300L780 300L780 280L800 280L800 260L780 260L780 240L800 240L800 220L780 220L780 200L800 200L800 180L780 180L780 160L800 160L800 140L780 140L780 120L800 120L800 100L780 100L780 120L760 120L760 100L740 100L740 120L720 120L720 100L700 100L700 120L680 120L680 100L660 100z"/>
<path style="fill:#7b9fb7; stroke:none;" d="M357 101L358 102L357 101z"/>
<path style="fill:#86a1b4; stroke:none;" d="M355 104L356 105L355 104z"/>
<path style="fill:#748e8f; stroke:none;" d="M546 107L547 108L546 107z"/>
<path style="fill:#ffffff; stroke:none;" d="M120 120L120 140L140 140L140 160L120 160L120 180L140 180L140 200L120 200L120 220L140 220L140 240L120 240L120 260L140 260L140 280L120 280L120 300L140 300L140 320L120 320L120 340L140 340L140 360L120 360L120 380L140 380L140 360L160 360L160 340L180 340L180 320L200 320L200 300L180 300L180 280L160 280L160 260L180 260L180 240L160 240L160 220L180 220L180 200L160 200L160 180L180 180L180 160L200 160L200 140L180 140L180 120L160 120L160 140L140 140L140 120L120 120z"/>
<path style="fill:#eeeeee; stroke:none;" d="M700 120L700 140L720 140L720 160L700 160L700 180L720 180L720 200L700 200L700 220L720 220L720 240L700 240L700 260L720 260L720 280L700 280L700 300L720 300L720 320L740 320L740 340L760 340L760 360L780 360L780 340L760 340L760 320L780 320L780 300L760 300L760 280L780 280L780 260L760 260L760 240L780 240L780 220L760 220L760 200L780 200L780 180L760 180L760 160L780 160L780 140L760 140L760 120L740 120L740 140L720 140L720 120L700 120z"/>
<path style="fill:#ffffff; stroke:none;" d="M880 120L880 140L900 140L900 120L880 120z"/>
<path style="fill:#045278; stroke:none;" d="M419.003 127.902C409.7 131.148 403.481 146.708 397.536 154C386.765 167.211 372.746 173.949 360.094 184.68C358.452 186.072 351.309 196.779 357.978 196.118C363.569 195.564 370.916 185.152 374.715 181.425L409.985 147.039C414.058 143.049 422.877 137.287 424.863 131.86C426.209 128.182 421.698 126.962 419.003 127.902z"/>
<path style="fill:#065178; stroke:none;" d="M473 131C482.824 138.293 491.353 148.353 500 157C505.843 162.843 511.658 168.697 517.7 174.335C524.549 180.726 530.758 187.863 537.999 193.848C542.03 197.18 546.397 195.727 544.253 190.014C541.146 181.733 526.776 176.022 520 170.87C507.607 161.446 499.263 149.486 490.29 137C485.925 130.925 479.654 123.467 473 131z"/>
<path style="fill:#102d35; stroke:none;" d="M426 130L387.174 168.271L357 197C363.515 205.416 374.416 205.021 384 202.764C404.245 197.997 423.175 179.627 429.641 160C432.802 150.408 434.54 137.128 426 130M543 199L543 197C524.13 183.707 508.452 164.115 492.001 148.015C488.611 144.698 478.087 131.183 473.149 131.921C469.489 132.467 468.346 138.057 468.094 141C467.325 149.974 469.257 158.974 473.27 167C485.623 191.707 515.93 213.183 543 199z"/>
<path style="fill:#8bb5c1; stroke:none;" d="M412 133L413 134L412 133z"/>
<path style="fill:#95aba8; stroke:none;" d="M429 133L430 134L429 133z"/>
<path style="fill:#b1d0e2; stroke:none;" d="M342.333 134.667L342.667 135.333L342.333 134.667z"/>
<path style="fill:#466874; stroke:none;" d="M583.333 136.667L583.667 137.333L583.333 136.667z"/>
<path style="fill:#96b6cd; stroke:none;" d="M341.333 138.667L341.667 139.333L341.333 138.667z"/>
<path style="fill:#eeeeee; stroke:none;" d="M0 140L0 160L20 160L20 140L0 140M160 140L160 160L140 160L140 180L160 180L160 160L180 160L180 140L160 140z"/>
<path style="fill:#ffffff; stroke:none;" d="M585 140L589 160L600 160L600 140L585 140M740 140L740 160L720 160L720 180L740 180L740 200L720 200L720 220L740 220L740 240L720 240L720 260L740 260L740 280L720 280L720 300L740 300L740 320L760 320L760 300L740 300L740 280L760 280L760 260L740 260L740 240L760 240L760 220L740 220L740 200L760 200L760 180L740 180L740 160L760 160L760 140L740 140z"/>
<path style="fill:#939ea0; stroke:none;" d="M432 141L432 149L433 149L432 141z"/>
<path style="fill:#7b979a; stroke:none;" d="M467 141L467 149L468 149L467 141z"/>
<path style="fill:#98adb2; stroke:none;" d="M559.333 142.667L559.667 143.333L559.333 142.667z"/>
<path style="fill:#adbcb9; stroke:none;" d="M340.333 143.667L340.667 144.333L340.333 143.667z"/>
<path style="fill:#83a6ac; stroke:none;" d="M405 143L406 144L405 143z"/>
<path style="fill:#6593ab; stroke:none;" d="M313.333 147.667L313.667 148.333L313.333 147.667z"/>
<path style="fill:#7aa0b5; stroke:none;" d="M339.333 147.667L339.667 148.333L339.333 147.667z"/>
<path style="fill:#6ea0c3; stroke:none;" d="M312.333 151.667L312.667 152.333L312.333 151.667z"/>
<path style="fill:#3f6981; stroke:none;" d="M587.333 151.667L587.667 152.333L587.333 151.667z"/>
<path style="fill:#63787d; stroke:none;" d="M431 152L431 155L432 155L431 152z"/>
<path style="fill:#5b7478; stroke:none;" d="M468 152L468 155L469 155L468 152z"/>
<path style="fill:#5b8fa7; stroke:none;" d="M338 154L338 157L339 157L338 154z"/>
<path style="fill:#819a9e; stroke:none;" d="M561.333 154.667L561.667 155.333L561.333 154.667z"/>
<path style="fill:#5389a3; stroke:none;" d="M311.333 156.667L311.667 157.333L311.333 156.667z"/>
<path style="fill:#efefef; stroke:none;" d="M300 160L300 180L280 180L280 200L300 200L300 220L280 220L280 240L300 240L300 260L280 260L280 280L300 280L300 300L307 300L302.039 229L310 160L300 160z"/>
<path style="fill:#6a94aa; stroke:none;" d="M310.333 160.667L310.667 161.333L310.333 160.667z"/>
<path style="fill:#ffffff; stroke:none;" d="M880 160L880 180L900 180L900 160L880 160z"/>
<path style="fill:#6f9bb4; stroke:none;" d="M337 162L337 168L338 168L337 162z"/>
<path style="fill:#86b4c4; stroke:none;" d="M390 162L391 163L390 162z"/>
<path style="fill:#97b3b6; stroke:none;" d="M562 162L562 168L563 168L562 162z"/>
<path style="fill:#769ab2; stroke:none;" d="M389 163L390 164L389 163z"/>
<path style="fill:#a8bfcd; stroke:none;" d="M337 168L337 176L338 176L337 168z"/>
<path style="fill:#90a8b4; stroke:none;" d="M308 169L308 172L309 172L308 169z"/>
<path style="fill:#81a8b9; stroke:none;" d="M382 169L383 170L382 169z"/>
<path style="fill:#5e7a86; stroke:none;" d="M591.333 169.667L591.667 170.333L591.333 169.667z"/>
<path style="fill:#8bb0c0; stroke:none;" d="M307 175L307 178L308 178L307 175z"/>
<path style="fill:#5f8a91; stroke:none;" d="M592.333 175.667L592.667 176.333L592.333 175.667z"/>
<path style="fill:#818c92; stroke:none;" d="M420 176L421 177L420 176z"/>
<path style="fill:#8bb0ca; stroke:none;" d="M369 178L370 179L369 178z"/>
<path style="fill:#eeeeee; stroke:none;" d="M0 180L0 200L20 200L20 180L0 180z"/>
<path style="fill:#7fa3b9; stroke:none;" d="M366 180L367 181L366 180z"/>
<path style="fill:#92a0a3; stroke:none;" d="M416 181L417 182L416 181z"/>
<path style="fill:#b8d2d1; stroke:none;" d="M449 181L435 207L450.015 193.056L467 208L451 181L449 181z"/>
<path style="fill:#89a5b3; stroke:none;" d="M306.333 182.667L306.667 183.333L306.333 182.667z"/>
<path style="fill:#728589; stroke:none;" d="M415 182L416 183L415 182z"/>
<path style="fill:#c5d6dd; stroke:none;" d="M337 184L337 195L338 195L337 184z"/>
<path style="fill:#54869f; stroke:none;" d="M305 188L305 192L306 192L305 188z"/>
<path style="fill:#89adbd; stroke:none;" d="M356 188L357 189L356 188z"/>
<path style="fill:#7e9094; stroke:none;" d="M409 188L410 189L409 188z"/>
<path style="fill:#698588; stroke:none;" d="M490 188L491 189L490 188z"/>
<path style="fill:#98a3a7; stroke:none;" d="M408 189L409 190L408 189z"/>
<path style="fill:#102d35; stroke:none;" d="M449 191C450.738 198.298 448.007 207.085 450.603 213.995C453.104 220.651 463.556 222.313 466.396 214.956C469.693 206.412 455.667 194.109 449 191z"/>
<path style="fill:#065178; stroke:none;" d="M450 192C443.673 195.083 430.38 207.928 433.743 215.891C436.423 222.238 446.894 220.757 449.258 214.956C451.829 208.645 450 198.751 450 192z"/>
<path style="fill:#397b8b; stroke:none;" d="M337 195L337 200L338 200L337 195z"/>
<path style="fill:#99a4a6; stroke:none;" d="M400 195L401 196L400 195z"/>
<path style="fill:#97b0b4; stroke:none;" d="M562 195L562 198L563 198L562 195z"/>
<path style="fill:#96b1bc; stroke:none;" d="M304 196L304 200L305 200L304 196z"/>
<path style="fill:#98afb7; stroke:none;" d="M595.333 196.667L595.667 197.333L595.333 196.667z"/>
<path style="fill:#87a4aa; stroke:none;" d="M357 198L358 199L357 198z"/>
<path style="fill:#eeeeee; stroke:none;" d="M140 200L140 220L160 220L160 200L140 200z"/>
<path style="fill:#ffffff; stroke:none;" d="M880 200L880 220L900 220L900 200L880 200z"/>
<path style="fill:#8e9ba1; stroke:none;" d="M361 201L362 202L361 201z"/>
<path style="fill:#759194; stroke:none;" d="M538 201L539 202L538 201z"/>
<path style="fill:#5d6c73; stroke:none;" d="M380 203L380 204L383 204L380 203z"/>
<path style="fill:#4e676b; stroke:none;" d="M517 203L517 204L520 204L517 203z"/>
<path style="fill:#a9b4b8; stroke:none;" d="M368 204L368 205L373 205L368 204z"/>
<path style="fill:#7d8b8e; stroke:none;" d="M373 204L373 205L377 205L373 204z"/>
<path style="fill:#8ba7aa; stroke:none;" d="M522 204L522 205L531 205L522 204z"/>
<path style="fill:#95b5c4; stroke:none;" d="M303 206L303 211L304 211L303 206z"/>
<path style="fill:#b6b8b3; stroke:none;" d="M596.333 206.667L596.667 207.333L596.333 206.667z"/>
<path style="fill:#668a96; stroke:none;" d="M596 208L596 211L597 211L596 208z"/>
<path style="fill:#98b2b3; stroke:none;" d="M467 210L467 213L468 213L467 210z"/>
<path style="fill:#6e97a9; stroke:none;" d="M339 212L339 216L340 216L339 212z"/>
<path style="fill:#bac5cb; stroke:none;" d="M432.333 212.667L432.667 213.333L432.333 212.667z"/>
<path style="fill:#8ab0c3; stroke:none;" d="M340 219L340 222L341 222L340 219z"/>
<path style="fill:#eeeeee; stroke:none;" d="M0 220L0 240L20 240L20 220L0 220z"/>
<path style="fill:#b2c5cb; stroke:none;" d="M597 222L597 228L598 228L597 222z"/>
<path style="fill:#bccedc; stroke:none;" d="M302 224L302 232L303 232L302 224z"/>
<path style="fill:#aec9da; stroke:none;" d="M341 224L341 227L342 227L341 224z"/>
<path style="fill:#758990; stroke:none;" d="M597 228L597 235L598 235L597 228z"/>
<path style="fill:#7b9aae; stroke:none;" d="M342.333 230.667L342.667 231.333L342.333 230.667z"/>
<path style="fill:#96baca; stroke:none;" d="M302 232L302 251L303 251L302 232z"/>
<path style="fill:#85a8bb; stroke:none;" d="M343.333 234.667L343.667 235.333L343.333 234.667z"/>
<path style="fill:#38596a; stroke:none;" d="M597 235L597 243L598 243L597 235z"/>
<path style="fill:#eeeeee; stroke:none;" d="M140 240L140 260L160 260L160 240L140 240z"/>
<path style="fill:#ffffff; stroke:none;" d="M880 240L880 260L900 260L900 240L880 240z"/>
<path style="fill:#6597b0; stroke:none;" d="M345.333 242.667L345.667 243.333L345.333 242.667z"/>
<path style="fill:#678992; stroke:none;" d="M597 243L597 251L598 251L597 243z"/>
<path style="fill:#7c9599; stroke:none;" d="M553.333 247.667L553.667 248.333L553.333 247.667z"/>
<path style="fill:#b8d2d1; stroke:none;" d="M347 249C353.815 277.758 374.892 316.162 402 330C400.071 305.554 387.279 282.105 370 265.004C363.54 258.611 356.011 251.326 347 249M499 330C524.475 316.996 548.851 277.094 553 249C523.535 258.324 499.609 300.479 499 330z"/>
<path style="fill:#bccbd2; stroke:none;" d="M597 251L597 256L598 256L597 251z"/>
<path style="fill:#eeeeee; stroke:none;" d="M0 260L0 280L20 280L20 260L0 260z"/>
<path style="fill:#bfd0d7; stroke:none;" d="M438 260L438 261L442 261L438 260z"/>
<path style="fill:#33545b; stroke:none;" d="M450 260L450 261L456 261L450 260z"/>
<path style="fill:#102d35; stroke:none;" d="M450 261L450 401C463.318 398.311 466.351 378.14 468.88 367C474.414 342.629 474 317.833 474 293C474 283.962 474.798 270.15 467.775 263.228C462.792 258.317 456.131 260.737 450 261z"/>
<path style="fill:#065178; stroke:none;" d="M450 401L450 346L450 308C450 295.095 453.456 276.538 449.682 264.228C447.514 257.158 432.827 261.327 430.164 266.044C425.091 275.028 426 288.066 426 298C426 320.999 426.55 343.424 431.339 366C433.725 377.25 436.425 398.253 450 401z"/>
<path style="fill:#548896; stroke:none;" d="M448.667 261.333L449.333 261.667L448.667 261.333z"/>
<path style="fill:#7b9fb7; stroke:none;" d="M303 262L303 269L304 269L303 262z"/>
<path style="fill:#6f878b; stroke:none;" d="M596 264L596 269L597 269L596 264z"/>
<path style="fill:#578db1; stroke:none;" d="M428.333 270.667L428.667 271.333L428.333 270.667z"/>
<path style="fill:#6392a6; stroke:none;" d="M304 273L304 278L305 278L304 273z"/>
<path style="fill:#84a6bf; stroke:none;" d="M426 278L426 283L427 283L426 278z"/>
<path style="fill:#8aa8aa; stroke:none;" d="M473.333 278.667L473.667 279.333L473.333 278.667z"/>
<path style="fill:#5f808f; stroke:none;" d="M595 278L595 281L596 281L595 278z"/>
<path style="fill:#eeeeee; stroke:none;" d="M140 280L140 300L160 300L160 320L140 320L140 340L160 340L160 320L180 320L180 300L160 300L160 280L140 280z"/>
<path style="fill:#ffffff; stroke:none;" d="M880 280L880 300L900 300L900 280L880 280z"/>
<path style="fill:#8db1c9; stroke:none;" d="M305 284L305 288L306 288L305 284z"/>
<path style="fill:#7595a0; stroke:none;" d="M474 286L474 293L475 293L474 286z"/>
<path style="fill:#5b7278; stroke:none;" d="M594 286L594 289L595 289L594 286z"/>
<path style="fill:#8eabbb; stroke:none;" d="M425 287L425 296L426 296L425 287z"/>
<path style="fill:#52809a; stroke:none;" d="M306.333 291.667L306.667 292.333L306.333 291.667z"/>
<path style="fill:#98b4c0; stroke:none;" d="M306 293L306 296L307 296L306 293z"/>
<path style="fill:#2d5668; stroke:none;" d="M474 293L474 315L475 315L474 293z"/>
<path style="fill:#759496; stroke:none;" d="M593.333 294.667L593.667 295.333L593.333 294.667z"/>
<path style="fill:#4f8496; stroke:none;" d="M425 296L425 315L426 315L425 296z"/>
<path style="fill:#729bad; stroke:none;" d="M307 299L307 302L308 302L307 299z"/>
<path style="fill:#eeeeee; stroke:none;" d="M0 300L0 320L20 320L20 300L0 300z"/>
<path style="fill:#4d686f; stroke:none;" d="M592 300L592 303L593 303L592 300z"/>
<path style="fill:#fffeff; stroke:none;" d="M593 300C592.007 305.271 587.601 316.798 590.117 321.674C593.272 327.788 605.515 332.701 611 336.884C619.875 343.653 628.279 351.368 635.385 360C643.769 370.184 645.675 380 660 380L660 360L640 360L640 340L620 340L620 320L600 320L600 300L593 300z"/>
<path style="fill:#4f889c; stroke:none;" d="M308 304L308 307L309 307L308 304z"/>
<path style="fill:#bccdd4; stroke:none;" d="M591.333 307.667L591.667 308.333L591.333 307.667z"/>
<path style="fill:#81abc1; stroke:none;" d="M309.333 310.667L309.667 311.333L309.333 310.667z"/>
<path style="fill:#b8c6c9; stroke:none;" d="M590.333 312.667L590.667 313.333L590.333 312.667z"/>
<path style="fill:#8cacbb; stroke:none;" d="M310 315L310 318L311 318L310 315z"/>
<path style="fill:#9cbabc; stroke:none;" d="M425 315L425 324L426 324L425 315z"/>
<path style="fill:#68898e; stroke:none;" d="M474 315L474 324L475 324L474 315z"/>
<path style="fill:#afbcc4; stroke:none;" d="M589.333 317.667L589.667 318.333L589.333 317.667z"/>
<path style="fill:#ffffff; stroke:none;" d="M880 320L880 340L900 340L900 320L880 320z"/>
<path style="fill:#6d94a3; stroke:none;" d="M591 323L592 324L591 323z"/>
<path style="fill:#477f98; stroke:none;" d="M426 328L426 333L427 333L426 328z"/>
<path style="fill:#6990a1; stroke:none;" d="M599 328L600 329L599 328z"/>
<path style="fill:#7fa8be; stroke:none;" d="M402 330L402 333L403 333L402 330z"/>
<path style="fill:#4e7888; stroke:none;" d="M473 331L473 338L474 338L473 331z"/>
<path style="fill:#789baf; stroke:none;" d="M294 332L295 333L294 332z"/>
<path style="fill:#6b8586; stroke:none;" d="M497.333 332.667L497.667 333.333L497.333 332.667z"/>
<path style="fill:#5c89a0; stroke:none;" d="M605 332L606 333L605 332z"/>
<path style="fill:#a1bec4; stroke:none;" d="M426 333L426 338L427 338L426 333z"/>
<path style="fill:#88a7bb; stroke:none;" d="M290 335L291 336L290 335z"/>
<path style="fill:#85a1ac; stroke:none;" d="M609 335L610 336L609 335z"/>
<path style="fill:#85abbe; stroke:none;" d="M403.333 336.667L403.667 337.333L403.333 336.667z"/>
<path style="fill:#60797e; stroke:none;" d="M496.333 338.667L496.667 339.333L496.333 338.667z"/>
<path style="fill:#89aab9; stroke:none;" d="M613 338L614 339L613 338z"/>
<path style="fill:#eeeeee; stroke:none;" d="M0 340L0 360L20 360L20 340L0 340z"/>
<path style="fill:#75a2b7; stroke:none;" d="M404.333 342.667L404.667 343.333L404.333 342.667z"/>
<path style="fill:#70878d; stroke:none;" d="M618 342L619 343L618 342z"/>
<path style="fill:#76abb9; stroke:none;" d="M280 343L281 344L280 343z"/>
<path style="fill:#638787; stroke:none;" d="M619 343L620 344L619 343z"/>
<path style="fill:#87a6b8; stroke:none;" d="M279 344L280 345L279 344z"/>
<path style="fill:#b8d2d1; stroke:none;" d="M427 344C427.013 364.102 430.82 385.945 437.09 405C438.981 410.748 441.741 421.894 449.039 422.717C457.344 423.653 460.724 412.02 462.823 406C469.176 387.774 472.947 366.311 473 347L472 347C471.704 361.356 467.421 378.3 460.737 391C457.723 396.726 451.811 403.844 445.093 398.566C429.166 386.052 433.926 360.353 427 344z"/>
<path style="fill:#597276; stroke:none;" d="M495.333 344.667L495.667 345.333L495.333 344.667z"/>
<path style="fill:#61868f; stroke:none;" d="M620 344L621 345L620 344z"/>
<path style="fill:#81a2b1; stroke:none;" d="M278 345L279 346L278 345z"/>
<path style="fill:#799aa1; stroke:none;" d="M472.333 345.667L472.667 346.333L472.333 345.667z"/>
<path style="fill:#7c9fb5; stroke:none;" d="M277 346L278 347L277 346z"/>
<path style="fill:#9abdd1; stroke:none;" d="M405 347L405 350L406 350L405 347z"/>
<path style="fill:#4c869a; stroke:none;" d="M428 349L428 352L429 352L428 349z"/>
<path style="fill:#577075; stroke:none;" d="M494.333 350.667L494.667 351.333L494.333 350.667z"/>
<path style="fill:#6b8d97; stroke:none;" d="M471.333 352.667L471.667 353.333L471.333 352.667z"/>
<path style="fill:#88a4bc; stroke:none;" d="M267 356L268 357L267 356z"/>
<path style="fill:#7ea9bc; stroke:none;" d="M429 356L429 360L430 360L429 356z"/>
<path style="fill:#6e969e; stroke:none;" d="M407.333 358.667L407.667 359.333L407.333 358.667z"/>
<path style="fill:#54757c; stroke:none;" d="M470.333 358.667L470.667 359.333L470.333 358.667z"/>
<path style="fill:#82999f; stroke:none;" d="M634 358L635 359L634 358z"/>
<path style="fill:#ffffff; stroke:none;" d="M880 360L880 380L900 380L900 360L880 360z"/>
<path style="fill:#649baf; stroke:none;" d="M430.333 362.667L430.667 363.333L430.333 362.667z"/>
<path style="fill:#52849b; stroke:none;" d="M408.333 363.667L408.667 364.333L408.333 363.667z"/>
<path style="fill:#80a3a5; stroke:none;" d="M638 363L639 364L638 363z"/>
<path style="fill:#84aab7; stroke:none;" d="M259 366L260 367L259 366z"/>
<path style="fill:#4f85a7; stroke:none;" d="M431.333 366.667L431.667 367.333L431.333 366.667z"/>
<path style="fill:#6fa3c8; stroke:none;" d="M409.333 367.667L409.667 368.333L409.333 367.667z"/>
<path style="fill:#97abb2; stroke:none;" d="M641 367L642 368L641 367z"/>
<path style="fill:#688d95; stroke:none;" d="M468.333 368.667L468.667 369.333L468.333 368.667z"/>
<path style="fill:#82a9b0; stroke:none;" d="M255 372L256 373L255 372z"/>
<path style="fill:#588aaf; stroke:none;" d="M410.333 372.667L410.667 373.333L410.333 372.667z"/>
<path style="fill:#7da0b4; stroke:none;" d="M646 375L647 376L646 375z"/>
<path style="fill:#87a7be; stroke:none;" d="M251 379L252 380L251 379z"/>
<path style="fill:#eeeeee; stroke:none;" d="M0 380L0 400L20 400L20 380L0 380M240 380L240 400L220 400L220 420L239.397 418.972L241.666 407L251 380L240 380M760 380L760 400L780 400L780 380L760 380z"/>
<path style="fill:#6697b7; stroke:none;" d="M413.333 383.667L413.667 384.333L413.333 383.667z"/>
<path style="fill:#59879f; stroke:none;" d="M414.333 387.667L414.667 388.333L414.333 387.667z"/>
<path style="fill:#4c8db5; stroke:none;" d="M243.333 399.667L243.667 400.333L243.333 399.667z"/>
<path style="fill:#538095; stroke:none;" d="M418.333 400.667L418.667 401.333L418.333 400.667z"/>
<path style="fill:#ffffff; stroke:none;" d="M880 400L880 420L900 420L900 400L880 400z"/>
<path style="fill:#7ca6bc; stroke:none;" d="M242.333 403.667L242.667 404.333L242.333 403.667z"/>
<path style="fill:#497b9c; stroke:none;" d="M419.333 403.667L419.667 404.333L419.333 403.667z"/>
<path style="fill:#4c656a; stroke:none;" d="M657.333 403.667L657.667 404.333L657.333 403.667z"/>
<path style="fill:#b2c8d5; stroke:none;" d="M241 407L241 410L242 410L241 407z"/>
<path style="fill:#66899c; stroke:none;" d="M658.333 408.667L658.667 409.333L658.333 408.667z"/>
<path style="fill:#6d8591; stroke:none;" d="M659 418L659 430L660 430L659 418z"/>
<path style="fill:#95b0c1; stroke:none;" d="M240 419L240 427L241 427L240 419z"/>
<path style="fill:#eeeeee; stroke:none;" d="M0 420L0 440L20 440L20 420L0 420z"/>
<path style="fill:#ffffff; stroke:none;" d="M660 420C659.99 434.894 653.98 446.184 650 460L660 460L660 440L680 440L680 420L660 420z"/>
<path style="fill:#77949c; stroke:none;" d="M472 424L473 425L472 424z"/>
<path style="fill:#6594a8; stroke:none;" d="M241 432L241 435L242 435L241 432z"/>
<path style="fill:#83acc0; stroke:none;" d="M432 432L433 433L432 432z"/>
<path style="fill:#476669; stroke:none;" d="M658 433L658 436L659 436L658 433z"/>
<path style="fill:#7fa7c0; stroke:none;" d="M242.333 438.667L242.667 439.333L242.333 438.667z"/>
<path style="fill:#ffffff; stroke:none;" d="M880 440L880 460L900 460L900 440L880 440z"/>
<path style="fill:#adb9c5; stroke:none;" d="M446.667 445.333L447.333 445.667L446.667 445.333z"/>
<path style="fill:#637f80; stroke:none;" d="M451 446L451 447L454 447L451 446z"/>
<path style="fill:#889a9e; stroke:none;" d="M649 459L650 460L649 459z"/>
<path style="fill:#eeeeee; stroke:none;" d="M0 460L0 480L20 480L20 460L0 460M240 460L240 480L260 480L260 500L280 500L281 485C265.49 477.63 257.458 460 240 460z"/>
<path style="fill:#7f9296; stroke:none;" d="M647 462L648 463L647 462z"/>
<path style="fill:#7a898c; stroke:none;" d="M643 467L644 468L643 467z"/>
<path style="fill:#828f95; stroke:none;" d="M637 473L638 474L637 473z"/>
<path style="fill:#ffffff; stroke:none;" d="M880 480L880 500L900 500L900 480L880 480z"/>
<path style="fill:#87969b; stroke:none;" d="M625 482L626 483L625 482z"/>
<path style="fill:#ffffff; stroke:none;" d="M580 520L600 520L600 500L620 500L620 486L593 496.576L581.028 501.56L580 520z"/>
<path style="fill:#94a3a8; stroke:none;" d="M616 487L617 488L616 487z"/>
<path style="fill:#969ea1; stroke:none;" d="M614 488L615 489L614 488z"/>
<path style="fill:#8b9a9f; stroke:none;" d="M612 489L613 490L612 489z"/>
<path style="fill:#7899a2; stroke:none;" d="M318 499L318 500L321 500L318 499z"/>
<path style="fill:#a9acb3; stroke:none;" d="M583.667 499.333L584.333 499.667L583.667 499.333z"/>
<path style="fill:#eeeeee; stroke:none;" d="M0 500L0 520L20 520L20 500L0 500M40 500L40 520L60 520L60 500L40 500M80 500L80 520L100 520L100 500L80 500M120 500L120 520L140 520L140 500L120 500M160 500L160 520L180 520L180 500L160 500M200 500L200 520L220 520L220 500L200 500M240 500L240 520L260 520L260 500L240 500M280 500L280 520L300 520L300 500L280 500M320 500L320 520L340 520L340 504L320 500z"/>
<path style="fill:#5786a0; stroke:none;" d="M323.667 500.333L324.333 500.667L323.667 500.333z"/>
<path style="fill:#adb8ba; stroke:none;" d="M579.667 500.333L580.333 500.667L579.667 500.333z"/>
<path style="fill:#ffffff; stroke:none;" d="M620 500L620 520L640 520L640 500L620 500M660 500L660 520L680 520L680 500L660 500M700 500L700 520L720 520L720 500L700 500M740 500L740 520L760 520L760 500L740 500M780 500L780 520L800 520L800 500L780 500M820 500L820 520L840 520L840 500L820 500M860 500L860 520L880 520L880 500L860 500z"/>
<path style="fill:#6b98b9; stroke:none;" d="M327.667 501.333L328.333 501.667L327.667 501.333z"/>
<path style="fill:#7b8e94; stroke:none;" d="M574.667 501.333L575.333 501.667L574.667 501.333z"/>
<path style="fill:#eeeeee; stroke:none;" d="M560 520L580 520L580 501L561.028 505.603L560 520z"/>
<path style="fill:#5687a7; stroke:none;" d="M332.667 502.333L333.333 502.667L332.667 502.333z"/>
<path style="fill:#99a4a8; stroke:none;" d="M570.667 502.333L571.333 502.667L570.667 502.333z"/>
<path style="fill:#a7bdc8; stroke:none;" d="M336.667 503.333L337.333 503.667L336.667 503.333z"/>
<path style="fill:#59899f; stroke:none;" d="M338.667 503.333L339.333 503.667L338.667 503.333z"/>
<path style="fill:#82979c; stroke:none;" d="M565 503L565 504L568 504L565 503z"/>
<path style="fill:#ffffff; stroke:none;" d="M340 504L340 520L360 520L360 507L340 504z"/>
<path style="fill:#73abbc; stroke:none;" d="M343 504L343 505L346 505L343 504z"/>
<path style="fill:#617679; stroke:none;" d="M558 504L558 505L561 505L558 504z"/>
<path style="fill:#86a6b5; stroke:none;" d="M349 505L349 506L352 506L349 505z"/>
<path style="fill:#65727a; stroke:none;" d="M552.667 505.333L553.333 505.667L552.667 505.333z"/>
<path style="fill:#b4bdc4; stroke:none;" d="M554.667 505.333L555.333 505.667L554.667 505.333z"/>
<path style="fill:#ffffff; stroke:none;" d="M540 520L560 520L560 505C546.88 506.037 540 505.798 540 520z"/>
<path style="fill:#809cb2; stroke:none;" d="M356 506L356 507L360 507L356 506z"/>
<path style="fill:#96a4a7; stroke:none;" d="M545 506L545 507L550 507L545 506z"/>
<path style="fill:#eeeeee; stroke:none;" d="M360 507L360 520L380 520L380 509L360 507z"/>
<path style="fill:#7697a8; stroke:none;" d="M364 507L364 508L368 508L364 507z"/>
<path style="fill:#627478; stroke:none;" d="M537 507L537 508L540 508L537 507z"/>
<path style="fill:#afbdbe; stroke:none;" d="M540.667 507.333L541.333 507.667L540.667 507.333z"/>
<path style="fill:#5288a2; stroke:none;" d="M376 508L376 509L381 509L376 508z"/>
<path style="fill:#536066; stroke:none;" d="M528 508L528 509L531 509L528 508z"/>
<path style="fill:#99a4a6; stroke:none;" d="M531.667 508.333L532.333 508.667L531.667 508.333z"/>
<path style="fill:#eeeeee; stroke:none;" d="M520 520L540 520L540 508C528.663 508.094 520.001 507.083 520 520z"/>
<path style="fill:#ffffff; stroke:none;" d="M380 509L380 520L400 520L400 510L380 509z"/>
<path style="fill:#a8c2d1; stroke:none;" d="M385 509L385 510L392 510L385 509z"/>
<path style="fill:#3a7692; stroke:none;" d="M392 509L392 510L397 510L392 509z"/>
<path style="fill:#8b9499; stroke:none;" d="M517 509L517 510L522 510L517 509z"/>
<path style="fill:#eeeeee; stroke:none;" d="M400 510L400 520L420 520L420 511L400 510z"/>
<path style="fill:#5c8ea7; stroke:none;" d="M403 510L403 511L432 511L403 510z"/>
<path style="fill:#576a6e; stroke:none;" d="M498 510L498 511L504 511L498 510z"/>
<path style="fill:#abb6ba; stroke:none;" d="M504 510L504 511L512 511L504 510z"/>
<path style="fill:#ffffff; stroke:none;" d="M500 511L500 520L520 520L520 510L500 511M420 511L420 520L440 520L440 511L420 511z"/>
<path style="fill:#eeeeee; stroke:none;" d="M440 511L440 520L460 520L460 512L440 511z"/>
<path style="fill:#476065; stroke:none;" d="M459 511L459 512L467 512L459 511z"/>
<path style="fill:#6a7e85; stroke:none;" d="M467 511L467 512L475 512L467 511z"/>
<path style="fill:#a6b4b7; stroke:none;" d="M475 511L475 512L494 512L475 511z"/>
<path style="fill:#eeeeee; stroke:none;" d="M480 512L480 520L500 520L500 511L480 512z"/>
<path style="fill:#ffffff; stroke:none;" d="M460 512L460 520L480 520L480 512L460 512z"/>
</svg>
