<?xml version="1.0" standalone="yes"?>
<svg width="920" height="512">
<path style="fill:#ffffff; stroke:none;" d="M0 0L0 15L15 15L15 30L0 30L0 45L15 45L15 60L0 60L0 75L15 75L15 90L0 90L0 105L15 105L15 120L0 120L0 135L15 135L15 150L0 150L0 165L15 165L15 180L0 180L0 195L15 195L15 210L0 210L0 225L15 225L15 240L0 240L0 255L15 255L15 270L0 270L0 285L15 285L15 300L0 300L0 315L15 315L15 330L0 330L0 345L15 345L15 360L0 360L0 375L15 375L15 390L0 390L0 405L15 405L15 420L0 420L0 435L15 435L15 450L0 450L0 465L15 465L15 480L0 480L0 495L15 495L15 510L0 510L0 512L442 512L442 511L402 506L402 507L405 510L390 510L393 504L393 503L356 491L356 492L360 495L345 495L345 486L354 490L354 489C319.026 468.587 287.499 449.043 261.46 417C247.488 399.807 238.063 380.955 227 362L226 362L232 375L225 375L226 359L210 360L210 345L219 347L220 347L213 323L212 323L213 330L210 330L210 319L211 319L211 322L212 322L210 311L209 311L210 315L195 315L195 300L207 300L207 305L208 305L205 276L204 276L204 285L195 285L195 270L204 270L204 255L195 255L195 240L205 240L206 220L205 220L205 225L195 225L195 210L207 210L206 217L207 217L221.8 163L236 130L235 130C232.553 134.361 229.812 134.943 225 135L225 120L240 120L240 105L253 106L255 90L263 90L262 93C269.035 87.8218 270.164 83.2385 270 75C281.549 75.2052 285.228 71.4623 285 60C293.085 60.066 297.691 59.9356 303 53L300 54L300 45L317 44L315 30L330 30L329 35L363 19L363 18L360 19L360 15L369 15L369 16L364 17L364 18L386 11L386 10L375 13L375 0L360 0L360 15L345 15L345 0L330 0L330 15L315 15L315 0L300 0L300 15L285 15L285 0L270 0L270 15L255 15L255 0L240 0L240 15L225 15L225 0L210 0L210 15L195 15L195 0L180 0L180 15L165 15L165 0L150 0L150 15L135 15L135 0L120 0L120 15L105 15L105 0L90 0L90 15L75 15L75 0L60 0L60 15L45 15L45 0L30 0L30 15L15 15L15 0L0 0z"/>
<path style="fill:#e6e6e6; stroke:none;" d="M15 0L15 15L30 15L30 0L15 0M45 0L45 15L60 15L60 0L45 0M75 0L75 15L90 15L90 0L75 0M105 0L105 15L120 15L120 0L105 0M135 0L135 15L150 15L150 0L135 0M165 0L165 15L180 15L180 0L165 0M195 0L195 15L210 15L210 0L195 0M225 0L225 15L240 15L240 0L225 0M255 0L255 15L270 15L270 0L255 0M285 0L285 15L300 15L300 0L285 0M315 0L315 15L330 15L330 0L315 0M345 0L345 15L360 15L360 0L345 0M375 0L375 13L387 11L390 9L390 0L375 0z"/>
<path style="fill:#ffffff; stroke:none;" d="M390 0L387 9L387 10C394.282 9.40524 404.71 8.72815 405 0L390 0z"/>
<path style="fill:#e6e6e6; stroke:none;" d="M405 0L405 6L412 5L411 3L420 2L420 0L405 0z"/>
<path style="fill:#ffffff; stroke:none;" d="M411 3L411 4L444 1C433.494 -3.40845 421.443 2.13956 411 3z"/>
<path style="fill:#9ce5f2; stroke:none;" d="M444.667 0.333344L445.333 0.666656L444.667 0.333344z"/>
<path style="fill:#32bea6; stroke:none;" d="M446 0.424377C387.05 8.16446 334.29 24.21 289 65.1698C195.233 149.971 177.249 293.841 247.355 399C263.374 423.029 283.926 444.221 307 461.525C333.125 481.117 363.47 495.439 395 503.845C427.027 512.383 461.247 514.025 494 509.718C617.855 493.432 710.55 387.574 715.961 264C721.187 144.65 635.577 34.5459 520 7.11572C496.726 1.59198 469.928 -2.71729 446 0.424377z"/>
<path style="fill:#cdd3d3; stroke:none;" d="M474 0L474 1L480 1L474 0z"/>
<path style="fill:#ffffff; stroke:none;" d="M480 0L480 1L497 2L480 0z"/>
<path style="fill:#e6e6e6; stroke:none;" d="M495 0L495 1C496.96 1.65335 497.554 2 495 2L495 3L510 5L510 0L495 0z"/>
<path style="fill:#ffffff; stroke:none;" d="M510 0L510 5L526 8L525 0L510 0z"/>
<path style="fill:#e6e6e6; stroke:none;" d="M525 0C525.094 10.3404 531.15 10.2371 540 11L540 0L525 0z"/>
<path style="fill:#ffffff; stroke:none;" d="M540 0L540 11L534 10L534 11L585 32L600 30L600 40L597 39L597 40L610 48L608 45L615 45L613 51C632.742 68.0838 651.353 84.8885 667 106L675 105C674.979 112.703 674.591 117.307 679 124L680 124L679 120L690 120L690 135L685 130L684 130L705 182L720 180L720 195C710.677 194.993 709.013 191.782 707 183L706 183L712 212L713 212L720 210L720 225L715 225L715 219L714 219L715 240L720 240L720 255L716 255L716 270L720 270L720 285L716 285L716 276L715 276L712 305L713 305L713 300L720 300L720 315L709.14 316.603L700.575 343L677 393L678 393L690 390L690 405L675 405L675 396L674 396L668 406L675 405L675 420L660 420L660 435L645 435L645 450L630 450L630 465L615 465L617 459L606 467L615 465L615 480L600 480L600 471L564 490L564 491L570 489L570 495C551.584 495 536.769 499.995 519 505L519 506L525 505L525 510L510 510L510 508L514 508L514 507L480 511L480 512L920 512L920 495L915 495L915 480L920 480L920 465L915 465L915 450L920 450L920 435L915 435L915 420L920 420L920 405L915 405L915 390L920 390L920 375L915 375L915 360L920 360L920 345L915 345L915 330L920 330L920 315L915 315L915 300L920 300L920 285L915 285L915 270L920 270L920 255L915 255L915 240L920 240L920 225L915 225L915 210L920 210L920 195L915 195L915 180L920 180L920 165L915 165L915 150L920 150L920 135L915 135L915 120L920 120L920 105L915 105L915 90L920 90L920 75L915 75L915 60L920 60L920 45L915 45L915 30L920 30L920 15L915 15L915 0L900 0L900 15L885 15L885 0L870 0L870 15L855 15L855 0L840 0L840 15L825 15L825 0L810 0L810 15L795 15L795 0L780 0L780 15L765 15L765 0L750 0L750 15L735 15L735 0L720 0L720 15L705 15L705 0L690 0L690 15L675 15L675 0L660 0L660 15L645 15L645 0L630 0L630 15L615 15L615 0L600 0L600 15L585 15L585 0L570 0L570 15L555 15L555 0L540 0z"/>
<path style="fill:#e6e6e6; stroke:none;" d="M555 0L555 15L570 15L570 0L555 0M585 0L585 15L600 15L600 0L585 0M615 0L615 15L630 15L630 0L615 0M645 0L645 15L660 15L660 0L645 0M675 0L675 15L690 15L690 0L675 0M705 0L705 15L720 15L720 0L705 0M735 0L735 15L750 15L750 0L735 0M765 0L765 15L780 15L780 0L765 0M795 0L795 15L810 15L810 0L795 0M825 0L825 15L840 15L840 0L825 0M855 0L855 15L870 15L870 0L855 0M885 0L885 15L900 15L900 0L885 0M915 0L915 15L920 15L920 0L915 0z"/>
<path style="fill:#9ce5f2; stroke:none;" d="M431.667 1.33334L432.333 1.66666L431.667 1.33334M423.667 2.33334L424.333 2.66666L423.667 2.33334z"/>
<path style="fill:#e6e6e6; stroke:none;" d="M0 15L0 30L15 30L15 15L0 15M30 15L30 30L15 30L15 45L30 45L30 60L15 60L15 75L30 75L30 90L15 90L15 105L30 105L30 120L15 120L15 135L30 135L30 150L15 150L15 165L30 165L30 180L15 180L15 195L30 195L30 210L15 210L15 225L30 225L30 240L15 240L15 255L30 255L30 270L15 270L15 285L30 285L30 300L15 300L15 315L30 315L30 330L15 330L15 345L30 345L30 360L15 360L15 375L30 375L30 390L15 390L15 405L30 405L30 420L15 420L15 435L30 435L30 450L15 450L15 465L30 465L30 480L15 480L15 495L30 495L30 510L45 510L45 495L60 495L60 510L75 510L75 495L90 495L90 510L105 510L105 495L120 495L120 510L135 510L135 495L150 495L150 510L165 510L165 495L180 495L180 510L195 510L195 495L210 495L210 510L225 510L225 495L240 495L240 510L255 510L255 495L270 495L270 510L285 510L285 495L300 495L300 510L315 510L315 495L330 495L330 510L345 510L345 495L330 495L330 480L315 480C315 467.853 312.314 465 300 465C299.967 455.626 294.56 450.113 285 450C284.736 441.871 278.147 435.266 270 435C269.736 426.106 263.879 420.105 255 420C254.991 408.449 251.213 405 240 405L240 390L225 390L225 375L210 375L210 360L195 360L195 345L210 345L210 330L195 330L195 315L180 315L180 300L195 300L195 285L180 285L180 270L195 270L195 255L180 255L180 240L195 240L195 225L180 225L180 210L195 210L195 195L210 195L210 180C216.612 178.906 217.679 170.711 219 165L210 165L210 150L225 150L225 135L210 135L210 120L225 120L225 105L240 105L240 90L255 90L255 75L270 75L270 60L285 60L285 45L300 45L300 30L315 30L315 15L300 15L300 30L285 30L285 15L270 15L270 30L255 30L255 15L240 15L240 30L225 30L225 15L210 15L210 30L195 30L195 15L180 15L180 30L165 30L165 15L150 15L150 30L135 30L135 15L120 15L120 30L105 30L105 15L90 15L90 30L75 30L75 15L60 15L60 30L45 30L45 15L30 15M330 15L330 30C341.595 29.9667 345 26.2105 345 15L330 15M360 15L360 19L364 19L369 16L360 15M570 15C570.008 24.626 575.609 28.326 585 30L585 15L570 15M600 15L600 30L615 30L615 45L630 45L630 60L645 60L645 75L660 75L660 90L675 90L675 105L690 105L690 120L705 120L705 135L690 135C690.102 146.365 694.176 150 705 150L705 165L701 165L704 176L705 176L705 165L720 165L720 180L735 180L735 195L720 195L720 210L735 210L735 225L720 225L720 240L735 240L735 255L720 255L720 270L735 270L735 285L720 285L720 300L735 300L735 315L720 315L720 330L706 330L705 345C698.952 346.047 696.961 354.59 696 360L705 360L705 375L690 375L690 390L705 390L705 405L690 405L690 420L675 420L675 435L660 435L660 450L645 450L645 465L630 465L630 480L615 480L615 495L600 495L600 480L585 480L585 495L570 495L570 510L585 510L585 495L600 495L600 510L615 510L615 495L630 495L630 510L645 510L645 495L660 495L660 510L675 510L675 495L690 495L690 510L705 510L705 495L720 495L720 510L735 510L735 495L750 495L750 510L765 510L765 495L780 495L780 510L795 510L795 495L810 495L810 510L825 510L825 495L840 495L840 510L855 510L855 495L870 495L870 510L885 510L885 495L900 495L900 510L915 510L915 495L900 495L900 480L915 480L915 465L900 465L900 450L915 450L915 435L900 435L900 420L915 420L915 405L900 405L900 390L915 390L915 375L900 375L900 360L915 360L915 345L900 345L900 330L915 330L915 315L900 315L900 300L915 300L915 285L900 285L900 270L915 270L915 255L900 255L900 240L915 240L915 225L900 225L900 210L915 210L915 195L900 195L900 180L915 180L915 165L900 165L900 150L915 150L915 135L900 135L900 120L915 120L915 105L900 105L900 90L915 90L915 75L900 75L900 60L915 60L915 45L900 45L900 30L915 30L915 15L900 15L900 30L885 30L885 15L870 15L870 30L855 30L855 15L840 15L840 30L825 30L825 15L810 15L810 30L795 30L795 15L780 15L780 30L765 30L765 15L750 15L750 30L735 30L735 15L720 15L720 30L705 30L705 15L690 15L690 30L675 30L675 15L660 15L660 30L645 30L645 15L630 15L630 30L615 30L615 15L600 15z"/>
<path style="fill:#ffffff; stroke:none;" d="M30 30L30 45L45 45L45 60L30 60L30 75L45 75L45 90L30 90L30 105L45 105L45 120L30 120L30 135L45 135L45 150L30 150L30 165L45 165L45 180L30 180L30 195L45 195L45 210L30 210L30 225L45 225L45 240L30 240L30 255L45 255L45 270L30 270L30 285L45 285L45 300L30 300L30 315L45 315L45 330L30 330L30 345L45 345L45 360L30 360L30 375L45 375L45 390L30 390L30 405L45 405L45 420L30 420L30 435L45 435L45 450L30 450L30 465L45 465L45 480L30 480L30 495L45 495L45 480L60 480L60 495L75 495L75 480L90 480L90 495L105 495L105 480L120 480L120 495L135 495L135 480L150 480L150 495L165 495L165 480L180 480L180 495L195 495L195 480L210 480L210 495L225 495L225 480L240 480L240 495L255 495L255 480L270 480L270 495L285 495L285 480L300 480L300 495L315 495L315 480L300 480L300 465L285 465L285 450L270 450L270 435L255 435L255 420L240 420L240 405L225 405L225 390L210 390L210 375L195 375L195 360L180 360L180 345L195 345L195 330L180 330L180 315L165 315L165 300L180 300L180 285L165 285L165 270L180 270L180 255L165 255L165 240L180 240L180 225L165 225L165 210L180 210L180 195L195 195L195 180L210 180L210 165L195 165L195 150L210 150L210 135L195 135L195 120L210 120L210 105L225 105L225 90L240 90L240 75L255 75L255 60L270 60L270 45L285 45L285 30L270 30L270 45L255 45L255 30L240 30L240 45L225 45L225 30L210 30L210 45L195 45L195 30L180 30L180 45L165 45L165 30L150 30L150 45L135 45L135 30L120 30L120 45L105 45L105 30L90 30L90 45L75 45L75 30L60 30L60 45L45 45L45 30L30 30z"/>
<path style="fill:#e6e6e6; stroke:none;" d="M315 30L315 43L330 36L330 30L315 30M585 30C586.985 36.0126 594.376 38.3568 600 40L600 30L585 30z"/>
<path style="fill:#ffffff; stroke:none;" d="M630 30L630 45L645 45L645 60L660 60L660 75L675 75L675 90L690 90L690 105L705 105L705 120L720 120L720 135L705 135L705 150L720 150L720 165L735 165L735 180L750 180L750 195L735 195L735 210L750 210L750 225L735 225L735 240L750 240L750 255L735 255L735 270L750 270L750 285L735 285L735 300L750 300L750 315L735 315L735 330L720 330L720 345L705 345L705 360L720 360L720 375L705 375L705 390L720 390L720 405L705 405L705 420L690 420L690 435L675 435L675 450L660 450L660 465L645 465L645 480L630 480L630 495L645 495L645 480L660 480L660 495L675 495L675 480L690 480L690 495L705 495L705 480L720 480L720 495L735 495L735 480L750 480L750 495L765 495L765 480L780 480L780 495L795 495L795 480L810 480L810 495L825 495L825 480L840 480L840 495L855 495L855 480L870 480L870 495L885 495L885 480L900 480L900 465L885 465L885 450L900 450L900 435L885 435L885 420L900 420L900 405L885 405L885 390L900 390L900 375L885 375L885 360L900 360L900 345L885 345L885 330L900 330L900 315L885 315L885 300L900 300L900 285L885 285L885 270L900 270L900 255L885 255L885 240L900 240L900 225L885 225L885 210L900 210L900 195L885 195L885 180L900 180L900 165L885 165L885 150L900 150L900 135L885 135L885 120L900 120L900 105L885 105L885 90L900 90L900 75L885 75L885 60L900 60L900 45L885 45L885 30L870 30L870 45L855 45L855 30L840 30L840 45L825 45L825 30L810 30L810 45L795 45L795 30L780 30L780 45L765 45L765 30L750 30L750 45L735 45L735 30L720 30L720 45L705 45L705 30L690 30L690 45L675 45L675 30L660 30L660 45L645 45L645 30L630 30z"/>
<path style="fill:#e6e6e6; stroke:none;" d="M915 30L915 45L920 45L920 30L915 30M0 45L0 60L15 60L15 45L0 45M60 45L60 60L45 60L45 75L60 75L60 90L45 90L45 105L60 105L60 120L45 120L45 135L60 135L60 150L45 150L45 165L60 165L60 180L45 180L45 195L60 195L60 210L45 210L45 225L60 225L60 240L45 240L45 255L60 255L60 270L45 270L45 285L60 285L60 300L45 300L45 315L60 315L60 330L45 330L45 345L60 345L60 360L45 360L45 375L60 375L60 390L45 390L45 405L60 405L60 420L45 420L45 435L60 435L60 450L45 450L45 465L60 465L60 480L75 480L75 465L90 465L90 480L105 480L105 465L120 465L120 480L135 480L135 465L150 465L150 480L165 480L165 465L180 465L180 480L195 480L195 465L210 465L210 480L225 480L225 465L240 465L240 480L255 480L255 465L270 465L270 480L285 480L285 465L270 465L270 450L255 450L255 435L240 435L240 420L225 420L225 405L210 405L210 390L195 390L195 375L180 375L180 360L165 360L165 345L180 345L180 330L165 330L165 315L150 315L150 300L165 300L165 285L150 285L150 270L165 270L165 255L150 255L150 240L165 240L165 225L150 225L150 210L165 210L165 195L180 195L180 180L195 180L195 165L180 165L180 150L195 150L195 135L180 135L180 120L195 120L195 105L210 105L210 90L225 90L225 75L240 75L240 60L255 60L255 45L240 45L240 60L225 60L225 45L210 45L210 60L195 60L195 45L180 45L180 60L165 60L165 45L150 45L150 60L135 60L135 45L120 45L120 60L105 60L105 45L90 45L90 60L75 60L75 45L60 45M300 45L300 54L313 47L300 45M608 45L615 50L615 45L608 45M660 45L660 60L675 60L675 75L690 75L690 90L705 90L705 105L720 105L720 120L735 120L735 135L720 135L720 150L735 150L735 165L750 165L750 180L765 180L765 195L750 195L750 210L765 210L765 225L750 225L750 240L765 240L765 255L750 255L750 270L765 270L765 285L750 285L750 300L765 300L765 315L750 315L750 330L735 330L735 345L720 345L720 360L735 360L735 375L720 375L720 390L735 390L735 405L720 405L720 420L705 420L705 435L690 435L690 450L675 450L675 465L660 465L660 480L675 480L675 465L690 465L690 480L705 480L705 465L720 465L720 480L735 480L735 465L750 465L750 480L765 480L765 465L780 465L780 480L795 480L795 465L810 465L810 480L825 480L825 465L840 465L840 480L855 480L855 465L870 465L870 480L885 480L885 465L870 465L870 450L885 450L885 435L870 435L870 420L885 420L885 405L870 405L870 390L885 390L885 375L870 375L870 360L885 360L885 345L870 345L870 330L885 330L885 315L870 315L870 300L885 300L885 285L870 285L870 270L885 270L885 255L870 255L870 240L885 240L885 225L870 225L870 210L885 210L885 195L870 195L870 180L885 180L885 165L870 165L870 150L885 150L885 135L870 135L870 120L885 120L885 105L870 105L870 90L885 90L885 75L870 75L870 60L885 60L885 45L870 45L870 60L855 60L855 45L840 45L840 60L825 60L825 45L810 45L810 60L795 60L795 45L780 45L780 60L765 60L765 45L750 45L750 60L735 60L735 45L720 45L720 60L705 60L705 45L690 45L690 60L675 60L675 45L660 45z"/>
<path style="fill:#ffffff; stroke:none;" d="M60 60L60 75L75 75L75 90L60 90L60 105L75 105L75 120L60 120L60 135L75 135L75 150L60 150L60 165L75 165L75 180L60 180L60 195L75 195L75 210L60 210L60 225L75 225L75 240L60 240L60 255L75 255L75 270L60 270L60 285L75 285L75 300L60 300L60 315L75 315L75 330L60 330L60 345L75 345L75 360L60 360L60 375L75 375L75 390L60 390L60 405L75 405L75 420L60 420L60 435L75 435L75 450L60 450L60 465L75 465L75 450L90 450L90 465L105 465L105 450L120 450L120 465L135 465L135 450L150 450L150 465L165 465L165 450L180 450L180 465L195 465L195 450L210 450L210 465L225 465L225 450L240 450L240 465L255 465L255 450L240 450L240 435L225 435L225 420L210 420L210 405L195 405L195 390L180 390L180 375L165 375L165 360L150 360L150 345L165 345L165 330L150 330L150 315L135 315L135 300L150 300L150 285L135 285L135 270L150 270L150 255L135 255L135 240L150 240L150 225L135 225L135 210L150 210L150 195L165 195L165 180L180 180L180 165L165 165L165 150L180 150L180 135L165 135L165 120L180 120L180 105L195 105L195 90L210 90L210 75L225 75L225 60L210 60L210 75L195 75L195 60L180 60L180 75L165 75L165 60L150 60L150 75L135 75L135 60L120 60L120 75L105 75L105 60L90 60L90 75L75 75L75 60L60 60z"/>
<path style="fill:#e6e6e6; stroke:none;" d="M285 60L286 68L294 62L285 60z"/>
<path style="fill:#ffffff; stroke:none;" d="M690 60L690 75L705 75L705 90L720 90L720 105L735 105L735 120L750 120L750 135L735 135L735 150L750 150L750 165L765 165L765 180L780 180L780 195L765 195L765 210L780 210L780 225L765 225L765 240L780 240L780 255L765 255L765 270L780 270L780 285L765 285L765 300L780 300L780 315L765 315L765 330L750 330L750 345L735 345L735 360L750 360L750 375L735 375L735 390L750 390L750 405L735 405L735 420L720 420L720 435L705 435L705 450L690 450L690 465L705 465L705 450L720 450L720 465L735 465L735 450L750 450L750 465L765 465L765 450L780 450L780 465L795 465L795 450L810 450L810 465L825 465L825 450L840 450L840 465L855 465L855 450L870 450L870 435L855 435L855 420L870 420L870 405L855 405L855 390L870 390L870 375L855 375L855 360L870 360L870 345L855 345L855 330L870 330L870 315L855 315L855 300L870 300L870 285L855 285L855 270L870 270L870 255L855 255L855 240L870 240L870 225L855 225L855 210L870 210L870 195L855 195L855 180L870 180L870 165L855 165L855 150L870 150L870 135L855 135L855 120L870 120L870 105L855 105L855 90L870 90L870 75L855 75L855 60L840 60L840 75L825 75L825 60L810 60L810 75L795 75L795 60L780 60L780 75L765 75L765 60L750 60L750 75L735 75L735 60L720 60L720 75L705 75L705 60L690 60z"/>
<path style="fill:#e6e6e6; stroke:none;" d="M915 60L915 75L920 75L920 60L915 60M0 75L0 90L15 90L15 75L0 75M90 75L90 90L75 90L75 105L90 105L90 120L75 120L75 135L90 135L90 150L75 150L75 165L90 165L90 180L75 180L75 195L90 195L90 210L75 210L75 225L90 225L90 240L75 240L75 255L90 255L90 270L75 270L75 285L90 285L90 300L75 300L75 315L90 315L90 330L75 330L75 345L90 345L90 360L75 360L75 375L90 375L90 390L75 390L75 405L90 405L90 420L75 420L75 435L90 435L90 450L105 450L105 435L120 435L120 450L135 450L135 435L150 435L150 450L165 450L165 435L180 435L180 450L195 450L195 435L210 435L210 450L225 450L225 435L210 435L210 420L195 420L195 405L180 405L180 390L165 390L165 375L150 375L150 360L135 360L135 345L150 345L150 330L135 330L135 315L120 315L120 300L135 300L135 285L120 285L120 270L135 270L135 255L120 255L120 240L135 240L135 225L120 225L120 210L135 210L135 195L150 195L150 180L165 180L165 165L150 165L150 150L165 150L165 135L150 135L150 120L165 120L165 105L180 105L180 90L195 90L195 75L180 75L180 90L165 90L165 75L150 75L150 90L135 90L135 75L120 75L120 90L105 90L105 75L90 75M270 75L271 83L278 76L270 75M720 75L720 90L735 90L735 105L750 105L750 120L765 120L765 135L750 135L750 150L765 150L765 165L780 165L780 180L795 180L795 195L780 195L780 210L795 210L795 225L780 225L780 240L795 240L795 255L780 255L780 270L795 270L795 285L780 285L780 300L795 300L795 315L780 315L780 330L765 330L765 345L750 345L750 360L765 360L765 375L750 375L750 390L765 390L765 405L750 405L750 420L735 420L735 435L720 435L720 450L735 450L735 435L750 435L750 450L765 450L765 435L780 435L780 450L795 450L795 435L810 435L810 450L825 450L825 435L840 435L840 450L855 450L855 435L840 435L840 420L855 420L855 405L840 405L840 390L855 390L855 375L840 375L840 360L855 360L855 345L840 345L840 330L855 330L855 315L840 315L840 300L855 300L855 285L840 285L840 270L855 270L855 255L840 255L840 240L855 240L855 225L840 225L840 210L855 210L855 195L840 195L840 180L855 180L855 165L840 165L840 150L855 150L855 135L840 135L840 120L855 120L855 105L840 105L840 90L855 90L855 75L840 75L840 90L825 90L825 75L810 75L810 90L795 90L795 75L780 75L780 90L765 90L765 75L750 75L750 90L735 90L735 75L720 75z"/>
<path style="fill:#ffffff; stroke:none;" d="M90 90L90 105L105 105L105 120L90 120L90 135L105 135L105 150L90 150L90 165L105 165L105 180L90 180L90 195L105 195L105 210L90 210L90 225L105 225L105 240L90 240L90 255L105 255L105 270L90 270L90 285L105 285L105 300L90 300L90 315L105 315L105 330L90 330L90 345L105 345L105 360L90 360L90 375L105 375L105 390L90 390L90 405L105 405L105 420L90 420L90 435L105 435L105 420L120 420L120 435L135 435L135 420L150 420L150 435L165 435L165 420L180 420L180 435L195 435L195 420L180 420L180 405L165 405L165 390L150 390L150 375L135 375L135 360L120 360L120 345L135 345L135 330L120 330L120 315L105 315L105 300L120 300L120 285L105 285L105 270L120 270L120 255L105 255L105 240L120 240L120 225L105 225L105 210L120 210L120 195L135 195L135 180L150 180L150 165L135 165L135 150L150 150L150 135L135 135L135 120L150 120L150 105L165 105L165 90L150 90L150 105L135 105L135 90L120 90L120 105L105 105L105 90L90 90z"/>
<path style="fill:#e6e6e6; stroke:none;" d="M255 90L256 101L257 101L263 90L255 90z"/>
<path style="fill:#ffffff; stroke:none;" d="M750 90L750 105L765 105L765 120L780 120L780 135L765 135L765 150L780 150L780 165L795 165L795 180L810 180L810 195L795 195L795 210L810 210L810 225L795 225L795 240L810 240L810 255L795 255L795 270L810 270L810 285L795 285L795 300L810 300L810 315L795 315L795 330L780 330L780 345L765 345L765 360L780 360L780 375L765 375L765 390L780 390L780 405L765 405L765 420L750 420L750 435L765 435L765 420L780 420L780 435L795 435L795 420L810 420L810 435L825 435L825 420L840 420L840 405L825 405L825 390L840 390L840 375L825 375L825 360L840 360L840 345L825 345L825 330L840 330L840 315L825 315L825 300L840 300L840 285L825 285L825 270L840 270L840 255L825 255L825 240L840 240L840 225L825 225L825 210L840 210L840 195L825 195L825 180L840 180L840 165L825 165L825 150L840 150L840 135L825 135L825 120L840 120L840 105L825 105L825 90L810 90L810 105L795 105L795 90L780 90L780 105L765 105L765 90L750 90z"/>
<path style="fill:#e6e6e6; stroke:none;" d="M915 90L915 105L920 105L920 90L915 90M0 105L0 120L15 120L15 105L0 105M120 105L120 120L105 120L105 135L120 135L120 150L105 150L105 165L120 165L120 180L105 180L105 195L120 195L120 180L135 180L135 165L120 165L120 150L135 150L135 135L120 135L120 120L135 120L135 105L120 105M240 105L240 120L225 120L225 135C229.875 134.983 233.164 134.994 235 130C241.068 128.74 250.45 110.976 252 105L240 105M668 105L674 115L675 105L668 105M780 105L780 120L795 120L795 135L780 135L780 150L795 150L795 165L810 165L810 180L825 180L825 165L810 165L810 150L825 150L825 135L810 135L810 120L825 120L825 105L810 105L810 120L795 120L795 105L780 105M679 120L683 131L685 130L690 135L690 120L679 120M915 120L915 135L920 135L920 120L915 120z"/>
<path style="fill:#4ec5b1; stroke:none;" d="M376 125L376 126L609 126L587 125L540 125L376 125z"/>
<path style="fill:#12b599; stroke:none;" d="M609 125L609 405L376 405L376 284L375 284L375 373C375 379.974 371.653 398.873 376.028 404.397C378.368 407.351 385.684 406 389 406L428 406L561 406L595 406C598.531 406 605.457 407.301 608.397 404.972C611.829 402.254 610 391.938 610 388L610 340L610 189L610 145C610 138.846 611.395 130.707 609 125z"/>
<path style="fill:#ffffff; stroke:none;" d="M376 126L376 153C391.03 143.101 406.381 135.029 425 135.455C476.631 136.637 512.319 187.15 497.431 236C487.385 268.959 452.19 292.139 418 288.83C408.97 287.956 400.26 285.226 392 281.561C388.13 279.844 384.279 276.407 380.109 279.192C372.45 284.307 376 302.918 376 311L376 405L609 405L609 126L376 126z"/>
<path style="fill:#e6e6e6; stroke:none;" d="M0 135L0 150L15 150L15 135L0 135z"/>
<path style="fill:#cdd3d3; stroke:none;" d="M422 135.439C400.64 137.722 381.908 144.518 367.174 161C321.731 211.831 364.004 295.628 432 288.829C466.941 285.336 496.142 258.072 500.711 223C506.48 178.714 469.664 130.346 422 135.439z"/>
<path style="fill:#ffffff; stroke:none;" d="M795 135L795 150L810 150L810 135L795 135M415 145.439C405.503 146.922 396.031 150.028 388 155.356C328.144 195.064 365.731 289.579 436 278.704C445.236 277.274 454.245 273.841 462 268.641C519.854 229.848 484.997 134.507 415 145.439z"/>
<path style="fill:#e6e6e6; stroke:none;" d="M915 150L915 165L920 165L920 150L915 150z"/>
<path style="fill:#9ce5f2; stroke:none;" d="M419 158.428C394.172 161.985 371.662 181.644 371.015 208C370.732 219.519 372.215 229.941 378.257 240C379.964 242.842 382.999 248.565 387.015 248.079C395.235 247.084 407.271 229.729 413 224L447 190C450.847 186.153 459.241 180.458 460.654 175.039C461.67 171.144 455.644 167.931 453 166.24C443.365 160.077 430.406 156.794 419 158.428z"/>
<path style="fill:#e6e6e6; stroke:none;" d="M0 165L0 180L15 180L15 165L0 165z"/>
<path style="fill:#6fdaf1; stroke:none;" d="M462 174L413 223L386 249C403.467 272.729 441.961 269.926 461.714 251.385C477.959 236.137 482.885 211.463 474.127 191C471.332 184.468 467.56 178.486 462 174z"/>
<path style="fill:#e6e6e6; stroke:none;" d="M705 182L705 183C711.471 190.342 708.325 194.999 720 195L720 180L705 182M915 180L915 195L920 195L920 180L915 180z"/>
<path style="fill:#9ce5f2; stroke:none;" d="M562 186L562 269L563 269L563 212L562 186z"/>
<path style="fill:#4ec5b1; stroke:none;" d="M563 186L564 215L564 269L580 269L580 215L581 186L563 186z"/>
<path style="fill:#32bea6; stroke:none;" d="M563 187L563 241L562 270L580 270L580 269L564 269L564 212L563 187z"/>
<path style="fill:#12b599; stroke:none;" d="M580 187L580 270L581 270L581 213L580 187z"/>
<path style="fill:#e6e6e6; stroke:none;" d="M0 195L0 210L15 210L15 195L0 195M810 195L810 210L825 210L825 195L810 195z"/>
<path style="fill:#9ce5f2; stroke:none;" d="M208.333 207.667L208.667 208.333L208.333 207.667M711.333 207.667L711.667 208.333L711.333 207.667z"/>
<path style="fill:#e6e6e6; stroke:none;" d="M195 210L195 225L205 225L207 210L195 210M713 220L715 219L715 225L720 225L720 210C712.266 210.092 712.728 213.217 713 220M915 210L915 225L920 225L920 210L915 210z"/>
<path style="fill:#9ce5f2; stroke:none;" d="M528 223L528 270L529 270L529 224L533 224L528 223z"/>
<path style="fill:#32bea6; stroke:none;" d="M529 224L529 270L546 270L546 269L530 269L530 225C535.074 225 542.942 223.283 546 228L547 228L547 223L529 224z"/>
<path style="fill:#9ce5f2; stroke:none;" d="M534.667 223.333L535.333 223.667L534.667 223.333M537.667 223.333L538.333 223.667L537.667 223.333M540.667 223.333L541.333 223.667L540.667 223.333z"/>
<path style="fill:#6fdaf1; stroke:none;" d="M543 223L543 224L546 224L543 223z"/>
<path style="fill:#e6e6e6; stroke:none;" d="M0 225L0 240L15 240L15 225L0 225z"/>
<path style="fill:#4ec5b1; stroke:none;" d="M530 225L530 269L546 269L546 225L530 225z"/>
<path style="fill:#e6e6e6; stroke:none;" d="M810 225L810 240L825 240L825 225L810 225z"/>
<path style="fill:#9ce5f2; stroke:none;" d="M205.333 227.667L205.667 228.333L205.333 227.667M714.333 227.667L714.667 228.333L714.333 227.667z"/>
<path style="fill:#12b599; stroke:none;" d="M546 229L546 234L547 234L546 229M546 235L546 270L547 270L546 235z"/>
<path style="fill:#e6e6e6; stroke:none;" d="M195 240L195 255L204 255L205 240L195 240M715 240L716 255L720 255L720 240L715 240M915 240L915 255L920 255L920 240L915 240z"/>
<path style="fill:#9b6144; stroke:none;" d="M315 320C330.458 311.755 343.673 293.346 356 281C359.379 277.616 368.144 271.229 368.249 265.985C368.333 261.84 363.006 257.47 361 254C353.904 257.309 348.484 264.516 343 270C330.05 282.95 303.351 299.507 315 320z"/>
<path style="fill:#e6e6e6; stroke:none;" d="M0 255L0 270L15 270L15 255L0 255M810 255L810 270L825 270L825 255L810 255z"/>
<path style="fill:#84452c; stroke:none;" d="M369 266C354.909 284.193 334.688 305.579 316 319L316 321C336.618 332.975 352.934 307.066 366 294C369.457 290.543 380.866 282.292 380.797 277C380.738 272.484 372.406 267.966 369 266z"/>
<path style="fill:#e6e6e6; stroke:none;" d="M204 268L195 270L195 285L204 285L204 268z"/>
<path style="fill:#9ce5f2; stroke:none;" d="M715 268L715 272L716 272L715 268z"/>
<path style="fill:#e6e6e6; stroke:none;" d="M716 285L720 285L720 270C712.912 271.231 715.985 279.555 716 285M915 270L915 285L920 285L920 270L915 270M0 285L0 300L15 300L15 285L0 285M810 285L810 300L825 300L825 285L810 285M195 300L195 315L210 315L209 304L207 305L207 300L195 300M713 300L713 305L711 304L709 315L720 315L720 300L713 300M915 300L915 315L920 315L920 300L915 300z"/>
<path style="fill:#fb5453; stroke:none;" d="M513 325L547 339L547 303C531.869 303.042 519.104 310.857 513 325z"/>
<path style="fill:#fbe157; stroke:none;" d="M547 303C547 311.561 543.284 331.408 548.028 338.582C552.57 345.451 573.201 350.867 581 353L580 358C596.827 335.505 570.906 303.066 547 303z"/>
<path style="fill:#cdd3d3; stroke:none;" d="M483.019 310.836C474.725 313.396 478.468 325.839 486.892 323.551C494.884 321.38 491.179 308.318 483.019 310.836z"/>
<path style="fill:#e6e6e6; stroke:none;" d="M0 315L0 330L15 330L15 315L0 315z"/>
<path style="fill:#cdd3d3; stroke:none;" d="M421 315C422.046 321.27 427.805 320 433 320L468 320L468 315L421 315z"/>
<path style="fill:#e6e6e6; stroke:none;" d="M810 315L810 330L795 330L795 345L780 345L780 360L795 360L795 375L780 375L780 390L795 390L795 405L780 405L780 420L795 420L795 405L810 405L810 420L825 420L825 405L810 405L810 390L825 390L825 375L810 375L810 360L825 360L825 345L810 345L810 330L825 330L825 315L810 315M210 319L210 330L213 330L213 322L210 319z"/>
<path style="fill:#4ec5b1; stroke:none;" d="M513 325C508.158 335.942 509.411 351.11 516.221 361C518.3 364.02 522.408 370.107 526.815 369.168C530.125 368.463 532.057 363.542 533.692 361C538.111 354.13 541.989 345.549 548 340L513 325z"/>
<path style="fill:#e6e6e6; stroke:none;" d="M105 330L105 345L120 345L120 330L105 330M915 330L915 345L920 345L920 330L915 330z"/>
<path style="fill:#cdd3d3; stroke:none;" d="M484.004 334.762C475.401 336.07 477.295 348.838 485.957 347.728C494.133 346.68 492.448 333.478 484.004 334.762z"/>
<path style="fill:#12b599; stroke:none;" d="M510 335L510 339L511 339L510 335z"/>
<path style="fill:#cdd3d3; stroke:none;" d="M421 339L421 344L468 344L468 339L421 339z"/>
<path style="fill:#12b599; stroke:none;" d="M510 340L510 345L511 345L510 340z"/>
<path style="fill:#049abf; stroke:none;" d="M526 370L526 371C544.703 379.45 576.247 379.336 581 353L557 343.15L546.529 341.068L526 370z"/>
<path style="fill:#e6e6e6; stroke:none;" d="M0 345L0 360L15 360L15 345L0 345M210 345L210 360L225 360L221 346L210 345z"/>
<path style="fill:#ffffff; stroke:none;" d="M795 345L795 360L810 360L810 345L795 345z"/>
<path style="fill:#cdd3d3; stroke:none;" d="M484.004 358.786C475.398 359.925 477.245 373.049 485.957 371.752C494.127 370.537 492.396 357.676 484.004 358.786z"/>
<path style="fill:#e6e6e6; stroke:none;" d="M105 360L105 375L120 375L120 390L105 390L105 405L120 405L120 420L135 420L135 405L150 405L150 420L165 420L165 405L150 405L150 390L135 390L135 375L120 375L120 360L105 360z"/>
<path style="fill:#fbe157; stroke:none;" d="M578 360L579 361L578 360z"/>
<path style="fill:#e6e6e6; stroke:none;" d="M915 360L915 375L920 375L920 360L915 360M225 361L225 375L232 375L227 361L225 361z"/>
<path style="fill:#fbe157; stroke:none;" d="M577 361L578 362L577 361z"/>
<path style="fill:#cdd3d3; stroke:none;" d="M421 363L421 368L468 368L468 363L421 363z"/>
<path style="fill:#fbe157; stroke:none;" d="M575 364L576 365L575 364M574 365L575 366L574 365M573 366L574 367L573 366M572 367L573 368L572 367M568 370L569 371L568 370z"/>
<path style="fill:#e6e6e6; stroke:none;" d="M0 375L0 390L15 390L15 375L0 375z"/>
<path style="fill:#ffffff; stroke:none;" d="M795 375L795 390L810 390L810 375L795 375M120 390L120 405L135 405L135 390L120 390z"/>
<path style="fill:#e6e6e6; stroke:none;" d="M675 405L690 405L690 390C678.144 390 675 393.125 675 405M915 390L915 405L920 405L920 390L915 390M0 405L0 420L15 420L15 405L0 405M615 465L630 465L630 450L645 450L645 435L660 435L660 420L675 420L675 405C666.088 405.216 663.033 411.722 657.725 418C648.564 428.835 638.747 439.29 628 448.575C622.508 453.32 616.023 457.347 615 465M915 420L915 435L920 435L920 420L915 420M0 435L0 450L15 450L15 435L0 435M915 450L915 465L920 465L920 450L915 450M0 465L0 480L15 480L15 465L0 465M600 480L615 480L615 465C604.23 465.311 600.001 469.641 600 480M915 480L915 495L920 495L920 480L915 480M345 486L345 495L360 495L356 492L345 486M555 494L570 495L570 489L555 494M0 495L0 510L15 510L15 495L0 495M360 495L360 510L375 510C375 499.067 371.423 495.243 360 495M554 495L540 500L540 510L555 510L554 495M390 504L390 510L405 510L403 505L390 504M513 506L514 508L510 508L510 510L525 510L525 505L513 506z"/>
<path style="fill:#9ce5f2; stroke:none;" d="M411.667 507.333L412.333 507.667L411.667 507.333z"/>
<path style="fill:#cdd3d3; stroke:none;" d="M421 509L421 510L425 510L421 509z"/>
<path style="fill:#e6e6e6; stroke:none;" d="M15 510L15 512L30 512L30 510L15 510M45 510L45 512L60 512L60 510L45 510M75 510L75 512L90 512L90 510L75 510M105 510L105 512L120 512L120 510L105 510M135 510L135 512L150 512L150 510L135 510M165 510L165 512L180 512L180 510L165 510M195 510L195 512L210 512L210 510L195 510M225 510L225 512L240 512L240 510L225 510M255 510L255 512L270 512L270 510L255 510M285 510L285 512L300 512L300 510L285 510M315 510L315 512L330 512L330 510L315 510M345 510L345 512L360 512L360 510L345 510M375 510L375 512L390 512L390 510L375 510M405 510L405 512L420 512L420 510L405 510z"/>
<path style="fill:#9ce5f2; stroke:none;" d="M431.667 510.333L432.333 510.667L431.667 510.333z"/>
<path style="fill:#e6e6e6; stroke:none;" d="M495 511L495 512L510 512L510 510L495 511M525 510L525 512L540 512L540 510L525 510M555 510L555 512L570 512L570 510L555 510M585 510L585 512L600 512L600 510L585 510M615 510L615 512L630 512L630 510L615 510M645 510L645 512L660 512L660 510L645 510M675 510L675 512L690 512L690 510L675 510M705 510L705 512L720 512L720 510L705 510M735 510L735 512L750 512L750 510L735 510M765 510L765 512L780 512L780 510L765 510M795 510L795 512L810 512L810 510L795 510M825 510L825 512L840 512L840 510L825 510M855 510L855 512L870 512L870 510L855 510M885 510L885 512L900 512L900 510L885 510z"/>
<path style="fill:#cdd3d3; stroke:none;" d="M442 511L442 512L446 512L442 511M474 511L474 512L480 512L474 511z"/>
</svg>
